<mxfile host="app.diagrams.net" modified="2022-01-22T09:10:40.356Z" agent="5.0 (Macintosh; Intel Mac OS X 10_15_7) AppleWebKit/605.1.15 (KHTML, like Gecko) Version/14.1.1 Safari/605.1.15" etag="QJPprpodxtnk90N3Y3gx" version="16.4.5" type="github">
  <diagram id="KyEU9-R5SflBxm1fFjLP" name="Page-1">
    <mxGraphModel dx="2547" dy="2234" grid="1" gridSize="10" guides="1" tooltips="1" connect="1" arrows="1" fold="1" page="1" pageScale="1" pageWidth="827" pageHeight="1169" math="0" shadow="0">
      <root>
        <mxCell id="0" />
        <mxCell id="1" parent="0" />
        <mxCell id="lu2x-ake6haxr_xihZO2-52" value="" style="shape=image;verticalLabelPosition=bottom;labelBackgroundColor=default;verticalAlign=top;aspect=fixed;imageAspect=0;image=data:image/png,iVBORw0KGgoAAAANSUhEUgAAApQAAAGcCAYAAABndDDMAAAK4mlDQ1BJQ0MgUHJvZmlsZQAASImVlwdUU1kagO976SEhQAICUkJvgnQCSAk9FOlVVEISSCghJgQFuzI4gqOCiDR1KKMUBUdHQEYRsWBFsWEfkEFBWQcLNlT2AUuYmT27e/bPubnf+d9///LOve/8FwByIFskSoMVAEgXZorDfD3oMbFxdNwzAAESIAIaMGJzJCJmSEggQGR2/qu8v4tYI3LLfMrXvz//r6LE5Uk4AEDxCCdyJZx0hDuRMcYRiTMBQB1B9HorM0VTfBthmhhJEOHhKU6e4S9TnDjNaIVpm4gwT4T1AcCT2GxxMgAkS0RPz+IkI35IIQhbCrkCIcIbEHbl8NlchJG4YEF6esYUjyJsjNiLACDTEGYk/sln8l/8J8r8s9nJMp6pa1rwXgKJKI2d/X++mv8t6WnS2RiGyCDxxX5hyKyKvL97qRkBMhYmLg6eZQF32n6a+VK/yFnmSDzjZpnL9gqQrU1bHDjLSQIflsxPJitilnkS7/BZFmeEyWIliT2Zs8wWz8WVpkbK9HweS+Y/hx8RPctZgqjFsyxJDQ+Ys/GU6cXSMFn+PKGvx1xcH1nt6ZI/1StgydZm8iP8ZLWz5/LnCZlzPiUxsty4PC/vOZtImb0o00MWS5QWIrPnpfnK9JKscNnaTGRzzq0Nkb3DFLZ/yCwDL+ANApEfHUQCa+CADEsQCoIyeasyp4rxzBBliwXJ/Ew6EzlxPDpLyLFYQLe2tLYGYOr8zmyJt2HT5xJS6ZjTZdQiW/k9cmYK53SJxQC05iGhH8zp9PcBQMkFoKWLIxVnzejQU38Y5KtAQb4LakAL6AFjYI7kZg+cgTuSsT8IBhEgFiwDHMAH6UAMVoI1YCPIAwVgJ9gNysF+UAPqwGFwFLSCk+AMuACugBvgDngI+sEQeAnGwHswAUEQDiJDVEgN0oYMIDPIGmJArpA3FAiFQbFQApQMCSEptAbaDBVARVA5VAXVQz9DJ6Az0CWoF7oPDUAj0BvoM4yCSTAN1oQN4YUwA2bCAXAEvBROhlfAOXAuvB0uhavhQ3ALfAa+At+B++GX8DgKoORQKigdlDmKgfJEBaPiUEkoMWodKh9VgqpGNaHaUd2oW6h+1CjqExqLpqLpaHO0M9oPHYnmoFeg16G3ocvRdegW9Dn0LfQAegz9DUPGaGDMME4YFiYGk4xZicnDlGAOYI5jzmPuYIYw77FYrArWCOuA9cPGYlOwq7HbsHuxzdhObC92EDuOw+HUcGY4F1wwjo3LxOXhynCHcKdxN3FDuI94Obw23hrvg4/DC/Gb8CX4BnwH/ib+OX6CoEAwIDgRgglcQjZhB6GW0E64ThgiTBAViUZEF2IEMYW4kVhKbCKeJz4ivpWTk9OVc5QLlRPIbZArlTsid1FuQO4TSYlkSvIkxZOkpO2kg6RO0n3SWzKZbEh2J8eRM8nbyfXks+Qn5I/yVHkLeZY8V369fIV8i/xN+VcUAsWAwqQso+RQSijHKNcpowoEBUMFTwW2wjqFCoUTCn0K44pURSvFYMV0xW2KDYqXFIeVcEqGSt5KXKVcpRqls0qDVBRVj+pJ5VA3U2up56lDNCzNiMaipdAKaIdpPbQxZSVlW+Uo5VXKFcqnlPtVUCqGKiyVNJUdKkdV7qp8nqc5jzmPN2/rvKZ5N+d9UJ2v6q7KU81XbVa9o/pZja7mrZaqVqjWqvZYHa1uqh6qvlJ9n/p59dH5tPnO8znz8+cfnf9AA9Yw1QjTWK1Ro3FVY1xTS9NXU6RZpnlWc1RLRctdK0WrWKtDa0Sbqu2qLdAu1j6t/YKuTGfS0+il9HP0MR0NHT8dqU6VTo/OhK6RbqTuJt1m3cd6RD2GXpJesV6X3pi+tn6Q/hr9Rv0HBgQDhgHfYI9Bt8EHQyPDaMMthq2Gw0aqRiyjHKNGo0fGZGM34xXG1ca3TbAmDJNUk70mN0xhUztTvmmF6XUz2MzeTGC216x3AWaB4wLhguoFfeYkc6Z5lnmj+YCFikWgxSaLVotXC/UXxi0sXNi98JulnWWaZa3lQyslK3+rTVbtVm+sTa051hXWt23INj42623abF7bmtnybPfZ3rOj2gXZbbHrsvtq72Avtm+yH3HQd0hwqHToY9AYIYxtjIuOGEcPx/WOJx0/Odk7ZToddfrD2dw51bnBeXiR0SLeotpFgy66LmyXKpd+V7prguuPrv1uOm5st2q3p+567lz3A+7PmSbMFOYh5isPSw+xx3GPD55Onms9O71QXr5e+V493krekd7l3k98dH2SfRp9xnztfFf7dvph/AL8Cv36WJosDqueNebv4L/W/1wAKSA8oDzgaaBpoDiwPQgO8g/aFfRoscFi4eLWYBDMCt4V/DjEKGRFyK+h2NCQ0IrQZ2FWYWvCusOp4cvDG8LfR3hE7Ih4GGkcKY3siqJExUfVR32I9oouiu6PWRizNuZKrHqsILYtDhcXFXcgbnyJ95LdS4bi7eLz4u8uNVq6aumlZerL0padWk5Zzl5+LAGTEJ3QkPCFHcyuZo8nshIrE8c4npw9nJdcd24xd4TnwiviPU9ySSpKGk52Sd6VPMJ345fwRwWegnLB6xS/lP0pH1KDUw+mTqZFpzWn49MT0k8IlYSpwnMZWhmrMnpFZqI8Uf8KpxW7V4yJA8QHJJBkqaQtk4Y0SlelxtLvpANZrlkVWR9XRq08tkpxlXDV1WzT7K3Zz3N8cn5ajV7NWd21RmfNxjUDa5lrq9ZB6xLXda3XW5+7fmiD74a6jcSNqRuvbbLcVLTp3eboze25mrkbcge/8/2uMU8+T5zXt8V5y/7v0d8Lvu/ZarO1bOu3fG7+5QLLgpKCL9s42y7/YPVD6Q+T25O29+yw37FvJ3ancOfdQrfCuiLFopyiwV1Bu1qK6cX5xe92L999qcS2ZP8e4h7pnv7SwNK2Mv2ynWVfyvnldyo8KporNSq3Vn7Yy917c5/7vqb9mvsL9n/+UfDjvSrfqpZqw+qSGmxNVs2z2qja7p8YP9UfUD9QcODrQeHB/rqwunP1DvX1DRoNOxrhRmnjyKH4QzcOex1uazJvqmpWaS44Ao5Ij7z4OeHnu0cDjnYdYxxr+sXgl8rj1OP5LVBLdstYK7+1vy22rfeE/4muduf2479a/HrwpM7JilPKp3Z0EDtyOyZP55we7xR1jp5JPjPYtbzr4dmYs7fPhZ7rOR9w/uIFnwtnu5ndpy+6XDx5yenSicuMy61X7K+0XLW7evya3bXjPfY9LdcdrrfdcLzR3ruot+Om280zt7xuXbjNun3lzuI7vXcj797ri+/rv8e9N3w/7f7rB1kPJh5ueIR5lP9Y4XHJE40n1b+Z/Nbcb99/asBr4OrT8KcPBzmDL3+X/P5lKPcZ+VnJc+3n9cPWwydHfEZuvFjyYuil6OXEaN4/FP9R+cr41S9/uP9xdSxmbOi1+PXkm21v1d4efGf7rms8ZPzJ+/T3Ex/yP6p9rPvE+NT9Ofrz84mVX3BfSr+afG3/FvDt0WT65KSILWZPtwIoZMBJSQC8OYj0x7EAUG8AQFwy019PCzRzJ5gm8J94pgefFnsAavoAiFgNQOA1AMrKkZYW8U9B7gUhFETvDGAbG9n4l0iSbKxnfJHckNbk8eTkW2MAcIUAfC2cnJyomZz8WoMk+xCAzuyZvn5KFA4hN5kOe0vLwMfOSRvA32Sm5/9TjX+fwVQGtuDv8z8B/VscpYimMwYAAABsZVhJZk1NACoAAAAIAAQBGgAFAAAAAQAAAD4BGwAFAAAAAQAAAEYBKAADAAAAAQACAACHaQAEAAAAAQAAAE4AAAAAAAAAkAAAAAEAAACQAAAAAQACoAIABAAAAAEAAAKUoAMABAAAAAEAAAGcAAAAAC1lkWYAAAAJcEhZcwAAFiUAABYlAUlSJPAAAEAASURBVHgB7J0F2BTV28YPit0tBioWGGB3IAKKIip2oNidKLaCYoudKIKd2CA2oKJgY4Ci2IXYnXz8zvd/ltl5Z3Znd2feXdj7ua73nTrnzJl7ds7c56lpMnmKOIkQEAJCQAgIASEgBISAECgTgaa9e/cus6qqCQEhIASEgBAQAkJACAgB55rEaSgnjB3n8WnRqqVwEgJCQAgIASEgBISAEBACsQjMEHtEB4SAEBACQkAICAEhIASEQAIERCgTgKQiQkAICAEhIASEgBAQAvEIiFDGY6MjQkAICAEhIASEgBAQAgkQEKFMAJKKCAEhIASEgBAQAkJACMQjIEIZj42OCAEhIASEgBAQAkJACCRAQIQyAUgqIgSEgBAQAkJACAgBIRCPgAhlPDY6IgSEgBAQAkJACAgBIZAAARHKBCCpiBAQAkJACAgBISAEhEA8AiKU8djoiBAQAkJACAgBISAEhEACBEQoE4BUD0UmTZrk+JNM2wjoPk7b9896r/toSGgpBIRAlgikOdY0zbKjanvaQeCvv/6adjqrnsYioPsYC800dUD3cZq6XeqsEJhmEUhzrJGGcpr9GajjQkAICAEhIASEgBCoDQREKGvjPqgXQkAICAEhIASEgBCYZhEQoZxmb506LgSEgBAQAkJACAiB2kBAhLI27oN6IQSEgBAQAkJACAiBaRYBEcpp9tap40JACAgBISAEhIAQqA0EMiGUX375pTvnnHPckCFDSrrKRx55xN1yyy2O+hIhIASEgBDIDoHPPvvMj7dDhw4t6SQap0uCS4WFQN0gkEnaoGuuucbdfffd7vbbb3cbbLCBm3feeRMBet1117nx48e75s2bu2bNmiWqo0JCQAgIASFQOgJvv/22O/vss92qq67qttxyy8QNaJxODJUKCoG6QiATDeXKK6/smjRp4onh3HPPXVeA6mKFgBAQAkJACAgBIVBvCGSiodxll13c5ptv7uabbz43wwyZcNZ6u0+6XiEgBISAEBACQkAI1CwCmbG9BRdc0M0444wFL/zff/8teFwHaxOBUu5bKWXtav/77z9bbbAstb1CbTVovI52TJ48uaSrLQfHcuqU1CkVdqXex1LLA3Gpz1zwtvz999/Bzbz1Un8fpfaj1PJ5ndOGEBACJSOQiYbyueeec+edd55baaWV3AUXXJDXqW+//dbdddddbvjw4e7NN990Cy20kGvfvr074ogj8sppo/oIPPXUU+6SSy5xq6++uuvevbu74oor3Msvv+x++OEH786w6667um7dunn3hmBvx40b58uy/OKLL9yiiy7qfwv77ruvW3PNNYNFXfActHfllVe6l156yZdZZ5113CmnnOIWX3xx98ADD7gbb7zRTZgwweFGsdpqq7mePXu6pZdeOq89Nv788083aNAg9+yzz7rRo0e7Oeec062//vr+d8ZvrR7ln3/+cddff717+umn3fvvv++JyAorrODWXXddd+SRR7qZZpqpASxPPvmke/zxx93zzz/vfv75Z7fiiiu6ww8/3M0888ze947tvn375tUT9nlwpL5Rzn185pln3KOPPuqfh99++83fx0MOOaRg38oZp3m+J06c6Mf+wYMH+zGe55VnmHECKfX3QfnLL7/cvfDCC96/frbZZnP8bhkrOnfu3OAaRo0a5ccJ/EO/++47t9RSS/nx67jjjnPzzz9/g/LaIQSEQHoIZEIof/rpJ//S4kUeFL4ZefDBB3siyX40mN9884277bbbPFH5/fffg8W1XmUEII5GPpgkEH0P8eClxouCSH4+LH/sscfmevrYY485Bm/TTMwyyyy+HnUheJdddpnbbLPNcuWD5xgxYoT7+uuvHXV4kUB+PvjgA//iuOqqq3ydWWed1b8oOMZL49577/WTklyDU1YgmvQDadq0qfv11189IYWU0ueuXbv6Y/XyD03NbrvtlnvuuIdoh8aMGeP/mNhBNoOkEqxOPPHEHESQSModdNBBbosttvC/C17uYRH2YUTS2y7nPjIhOOqoo3KaTO4j9x1CiVtSlJQ7TjMmfPXVV/4Ze/XVV3NNB7Wipfw+fvnlF7fnnns6Jqa4Ti2xxBKesDKp5e/dd991PXr0yJ2HSeTpp5/uNapMOpnIfvjhh/6PsYVA0cUWWyxXXitCQAiki0BmJu+obvbu3du/lBjULrzwQq89GjlypDvttNPce++950hjIak9BCB1kLz777/fv4yYALRt29Z3dODAgY4JBMKLA40mZJKX1bBhw9wbb7zh7rvvPrfeeus5XlQQlyjhHAsvvLBDK0adfv36uTnmmMN9/PHHDjLZsWNHB6l97bXXHFGm9Afyyb6gXHzxxZ5Mzj777F7b+corr3gN2wEHHOCLnXHGGb6NYJ3pfR1tEWQQzMjAwMsejQ/kGnnxxRf9C9pwoCwvZqRTp04+/Rf3hBc299HIupW3pbA3JLJZlnofeaaYFPBc8rw+9NBD/tm65557vNYO60CUVDpO8/uCCNr5mMwgpf4+GAsgk4sssogjVRHkGOvF8ccf79u7+eabvbXEb0z5x28b0o2mFE0lk07+yBrCxPfWW2+1oloKASGQAQKNRighGQwwCCaQbbbZxhMGUgrtscce7tBDD83g8tRkWghA8Fq1auXN25itmRAwMYAkoplAGMzRTmIaxxSKhgDB9cFMbG+99Zav4w8E/qGB4IWAFgLZZJNN3NZbb+3X+Y3wMsIvl+wBm266aU67QnsmvDghu8j555/vTdyQqAUWWMBrMkiNwu/w4Ycftip1sWzZsqW/J6TxQjuMJhINDpratdZay2NgbgZsQBi5r6ussop3WWnRooXHnewN3Fte0GER9mFE0t8u9T5i5sbEvcwyy/jnEVMxzw9pgjAj8zyFJY1xetttt3WnnnqqN03z/PF7K+f3wWQQwfWF3yBCW/vtt5+fmF500UW5oE9M7aaQICiU60TQSA4YMMD/bjt06OD36Z8QEALZINBohBLTKYMVJGTHHXdscDWQSkltIgDJC5OIueaay/s20mMGcwTzMj6KDNyYpk0wX+MHiUBU8McLy/LLL9/gBceLEOEFSNtBsWPBtiC2mLcxxUaZ8+yFgqm8ngQiwbVDCE0weaNZNlLx/fff26GcaRxCHzSDU4D7jsk7LMI+jEj626Xex7Fjx/pO2OQ92CN81+15CO5PY5yOevbK+X0wJiAkXsdKgT+2ycYbb+z7b2npsG7MM888/jAaTNxreN8gjD1cK77gEiEgBLJDIP8tnd153DvvvONbhwhERX/jMI0mCWdwSW0hYFrDcK/MRxbtgwlaSrSEDOjcc0iLDexWJmoZ5TBvWoYoX70wwaRN01bii4tWNE7oF4SqnlJa4W92xx13eJMhrgIQ7+B9C2JlRMRe6MFjrBOMExZhH0Ykm+1S7qONuaXcR6tTyThtk5QgAuX8PtCgY+bH3QLNOH+MRZBJtKAE5gUF16kTTjjBu+Xg4oJ2FBKJZWKrrbbyWvlgea0LASGQLgKNRiiNVKChjJNCx+LqaH/2CBixK3YmNJH7779/LkqbAR3ygVaL9WFTfCqzlGBQF9HLYYFE8SUmXjL1RCjxPUNrw/1BeCmj7UKjQwRwWPBZYyJAwFyUmEY6eEzYB9HIZr3U+1hszA1rn+l1sTqUKWecLuf3wYSVT/E+8cQT3l2KQBzM2kyM+MM3E59oE6K+0cLj64vvJFpR/IP5g4ySJSJqMmT1tRQCQqAyBBqNUOL/g1jUcJikENGnb3hXdjOrXZtAD3zx0PwRzY0fJEQSIZqbgI4sxbSSJNS/6aabsjzVNNU2/q+QSXxP8V8Oui+cddZZOb9Tuyh8JyHevMC33357251bEvAQFmEfRiT97VLvI2MuQWvcS+59WAiEDEtW43S5vw/IK64X/DEJ5DfJs01AEaSSoDF8LE3QrOLHzR/WLrIV4ENJUA6fmSSQRyIEhEA2CDSaDyUzQ4gGM1VyUIZlyJAh4V3ansYQMCf6Nm3aeJ8lI5NcBtH8WQsvQ7Qu+ANiJgsLpJa8lGZ+Cx+fHrf/+OMPn16Ja9trr73yyCT7mASExXKFEp0fjujmZR71/Ar7MIrpbpdzHwmiQ4iWxhUlKHHjcFbjdDm/DwgvzyqBRQjvD8gj/pTmhmMmep5typImyAQXKgJ4LLWQlbXjWgoBIZAuAo1GKPGD23DDDX3vSWVhflrsQOPB7FEybSOw3HLL+QsID+ykoenTp0/mF4c2A60oQgLuoAaG/HjkQIVUkXaoXoTgKAuIYtKGlgchlyg+Z5gFw7LDDju4du3aeR/Lo48+2gfRkT8QLdG5556bC+QJ1hP2QTTSXy/nPnIP8Vd//fXX/X0zszOBbCeddJL76KOPGnQ0q3G6nN8Hv08COMkAEiTEPNdoHJE11ljDLxlzKIvZOzh5pR6TSERBOR4G/RMCmSHQaCZvroBUMzz0+MFgSiOtDA88vlrNmjXzL7k4v63MEFDDqSGAszwpftAW4ASPVgLtArkkMUXx5YqshS8zkQOPCUuXLl38b4xIUF6eRJgT/GMai6z7UivtE+VLSiZ8y9BWkYKF4A7uDV8S4f4EBXcU0j6BEyZTXtb8IeQD5Q+TYliEfRiRdLdLvY8QKO4TKbTIwUhi7yWXXNLfbyYUrVu39gEs4V5mNU6X+vsgnyQTGnwg8YnmenDdgCDzLEMmuQZko4028uMNeSvRSjK5xbWD3znvGwgt44JECAiB7BDIRENp0bO2tO5DNq699lpPNggIQGsEgcS3Dodpi/QN17P6WjYuAubnGnc/bL8tuX933nmnT/PDPkgdZIXch/h/RbUXtc+u0tq1pe1naftsacdIhs65dt55Z/9C4TeGRgPNHP5W9G/ppZe24nWx5EspfNqU5+/HH3/0id1xR0BrTAQsYvfBAEFTdfXVV3vtzg033OB9YtFwkr8wKsKeesLe0MtmWc593GeffXxAFsEqBNyQ7Jx7i8aZADokfO/LHaftWQy3Z2iU+vsgPdXAgQN9IA3aVfuUKj7S9D3sD2mBOkwg8RvFz5IAMqLBycEa5UdqfdNSCAiByhFoMiV1yOSoZiaMHed3t2j1/8E0UWUq2ccLHrJBigmigCXVRcByvKX1aTK0X5A58sNZeqFqXCEvFPzPuK44IlSNfmV1zmL3keM8e5jB4178kA5IOMSjbdu2DbqKBqt///5up512cgT1xEm9YR+HQzn707iP4fNiIeC55Fkw8hcuE97Ocpwu5fcBGUbTCNmFUBYT2oaE4msZlaauWH0dFwL1gkCxsaYUHBrV5B3sGAMaZlDJ9IkAnz60r1tU8wohtJKpCCSZMJBe6ZhjjvGVMDmSngWLAm4DaH1MM4SZsZAI+0LoVHYsyX0MnwELglmBwsfitrMcp0v5fRBsV8r7opS2465d+4WAECgNgaoRytK6qdJCQAg0FgL4pWEK5wsll156qf9DM4RvrMl2223nA3dsW0shIASEgBCobwREKOv7/uvqhUAkAhDJe++91/9hAodMot0iFQ2f10RrKRECQkAICAEhYAiIUBoSWgoBIZCHABkZ+EMwgxNUIRECQkAICAEhEIVAJlHeUSfSPiEgBKZdBEQmp917p54LASEgBBoDARHKxkBZ5xACQkAICAEhIASEwHSMgEze0/HNLeXSSPwrmfYR0H2c9u8hV6D7OH3cR12FEKh1BNIca6qWh7LWQVb/hIAQEAJCQAgIASEgBJIhIJN3MpxUSggIASEgBISAEBACQiAGARHKGGC0WwgIASEgBISAEBACQiAZAiKUyXBSKSEgBISAEBACQkAICIEYBEQoY4DRbiEgBISAEBACQkAICIFkCIhQJsNJpYSAEBACQkAICAEhIARiEBChjAFGu4WAEBACQkAICAEhIASSISBCmQwnlRICQkAICAEhIASEgBCIQUCEMgYY7RYCQkAICAEhIASEgBBIhoAIZTKcVEoICAEhIASEgBAQAkIgBoEmn3/++eSoY3/8+JPfPes8c0cd1j4hIASEgBAQAkJACAgBIeARkIZSPwQhIASEgBAQAkJACAiBihBouthii0U2MOF/Gsq445GVtFMICAEhIASEgBAQAkKg7hCQhrLubrkuWAgIASEgBISAEBAC6SIgQpkunmpNCAgBISAEhIAQEAJ1h4AIZd3dcl2wEBACQkAICAEhIATSRUCEMl081ZoQEAJCQAgIASEgBOoOARHKurvlumAhIASEgBAQAkJACKSLgAhluniqNSEgBISAEBACQkAI1B0CIpR1d8t1wUJACAgBISAEhIAQSBcBEcp08VRrQkAICAEhIASEgBCoOwREKOvulmd7wV9++aV766233N9//132ib777js3ceLEovW/+uorN2nSpKLlVEAI1BMCX3zxhZswYYKbPHnqV3V/+OEHv++vv/6qGIqPP/7YvfDCCxW3E26Adh9++GH33nvvhQ9VvD1ixAj37rvv5mFScaOhBv744w/3zjvvuDQwDjWtTSEwTSDQZMqgM3XUCXR5wthxfqtFq5aBvVqtZwSee+459+OPPzaAYNlll3UtW/7/76RHjx5u8ODB7oknnnBLLrlkg7L83Jo0adJgf3DHPvvs419Yr7zyiptjjjmCh/LWW7du7ZZffnk3aNCgvP3aEAL1jMC2227rydPLL7/s5pxzTg/Fdddd5y655BJ3zjnnuK5du1YET/v27d1nn33m7rvvPrfSSitV1Faw8i233OLOPvtsR/tXXnll8FDR9a+//tqddtpp7rDDDnNt2rTJKz9+/HgHJowlEMvZZpst73ixjSFDhjgmyvvtt1/Boscee6yj7Jlnnul23nnngmXt4IcffujoX6XStm1bN/PMM1fajOoLgYoQaFpRbVWuKwROOeUUx8Adlv333z9HKMPHgtv//POPO+CAA9wKK6zgTjrppOAhP2BzHPn555/98tNPPy1IKNEE8Ec5kyWWWKIoYbWyWgqBpAig4ZtrrrncjDPOmLSKL/f999/733CtvOxj9AclXRMTvrPOOsvdfffdrlevXiXVLVR4xx13dFdddZUbPny4w0ox//zzFyqed+yuu+7yZPHFF190p59+uqMtkyuuuML9999/bp555nEDBw603bHLNdZYw6277rr+OPcPovrrr7/6se/kk0+OrXfwwQe7Rx991N18882JCSWk/Prrr49tM+mB+++/37Vq1SppcZUTApkgIEKZCazVbZSXxo033uiGDRvmO3LttdcWJGZJe3viiSe633//PVccExWaj6TCwIypDJMcs/lZZpnFV4UUbrbZZg2a2W677RrsC+9gdt+hQ4fcbl4o8847b25bK0KgXAQwG/PsvPrqq14jN/vsszu04mifttpqq9hm0d5BYp566in3yy+/uKZNm3pNeqdOnfyEqpiGPrbhRjpw4IEHuk8++ST2bDYGQIZ43grJoosumiNxaEz79+9fqLibYYYZvLvMQQcd5BZccMGCZbt3754jfkceeaRr3ry51w6eeuqp7u2333ZnnHGGd7/BWoJwXy677LKCbXJwt912y7U733zzuZtuuslrPiGKTCzOPfdcd9FFF7mxY8c2aIux9/3333e77757A40hWJx33nkN6rBjjz32iLToRBaO2EnbEiFQbQREKKt9B1I+P76HPXv2zBvoIWyFTMdJu8ALMSivvfZaYkKJuY1Z9AILLOBuuOGGHJmkPV4ie+21V65pXgCYmHbdddcGg3Ku0JSV2267zZuvzISH9iiN6wyeQ+v1iQB+wGjT0VAhaMtYh0Dx9/nnn/vjYXTw/+O3DPFAMDnjWwf54G/UqFHenFuq2TV8niy30cYV8oGGIC+++OK+C4XKUSB4HEL3zDPPJOr6m2++WbTcFltskVeGCSjuN9w3iDz3gIkrJA/t4cYbb5xXPm5j4YUXzju0yiqrODSge+65p3vooYe8SZ17ye/AXAqsgm2H/UDpT4sWLaxYgyUTlDXXXLPB/qgd4Ai5hfgXI91R9bVPCGSFgAhlVshWod2nn37aYZY2MxsvhmoLfUGziRkLDQ8azbBvJS+ooCkJrSOE8vjjjy9IEO+880631FJL5dWt9vXq/NM+AhAQNGT8dtdZZx134YUXukUWWcT7D2PqfeSRR1zfvn29ZnzppZfOXTDk6dBDD/VEBrcOtFH4GLIfbR6areeff97xu8VsXAuCTzT+imjI7FqYqGUhW2+9daQlIniuO+64w1166aXu6KOP9prC4LHwOuNJWFZddVX3wAMP+Ikr9xBNKxYLLCBMXIsJRDnK1G6a1ltvvdX3y7SeL730UiIXm6RkFr9xSCtjZtykg98R2m9chDDvS4RArSAgQlkrd6LCfjBj5mWGbLLJJu6YY45x22+/fYWt5lcnopqAG5MPPvjAViOXmLfRln7zzTeeRF588cWO2X5Swbk9blCljX///TdpUyonBBIjgLn022+/9dqnfv36uVlnndXXxQfvggsucJhuyTDw7LPP5kgYBQgOQ3uEphyTKKQSmWmmmdwuu+zifYPZP2DAAIe5tlLTN6bnoAbQn2zKv6TPBf2lPxBnzPthczSEZcyYMd7/0NpOuoTYmUuL1QEHMCwk9ryzLFY22A5jDFrNdu3aOcgfbgojR470mlS0yeCfRPAHP+644/KKMlHHpxL/bIheVsJEBt9ySPAbb7zhrr76arfYYovlnY7ASMgkWBYLEsqrqA0h0AgIiFA2AsiNcQrM2jj+E2W99957J0q7U2q/SInB7DiJ8FLDZ5KBvkuXLt6fqVRz9IMPPpjkVCojBFJFYNy4cZ6IEJxhZNJOgJaLSRGEMhydizkbwX/OyKTVY7nvvvv6CGuIZKVkkvbwFQxO8NhXTP78809vvsUvEBKJdYD+Hn744Q2q4j7DsXLkscce89aDqLqQ9TiTNmQewQ/RfMDDbUCygvhCfHEzIGIaQsgYyL3DwsHkmvEHzSNaWARStvbaa+cRXvzB0RyH7zduOpA87jnBM/hUIs2aNfNLtNdJNJ/gvswyy/g6cf/4TaABJVIdfAgsuvzyy91aa63lq3CdROkjO+ywQ87twO/QPyFQAwiIUNbATUijCwyY+PlkGenHSxTBaR1NgAkz97CgpcFvktk2pq5yBH8r80mKqr/hhhtG7dY+IVARArzIg1HC4cbQeCFhggBBQ8y3j7yH+NJBFNBwLbTQQpHmVF+pjH+Y06PcWtCg4rMXJWj9EYgkzyXBLLiNFBJcVML+03HlIZKQs0KC9s2sKXHl7rnnHsdflDD+EHBjwrXg6gOBxD+b+wDRQ4OHSR/NH/6LuBkMHTrUux3gXwlZM19QtM0QyrBWlRRGuDjgqsB50eJSh4k1YxPBj0mEcRm/x2KC/yYuB1wPOTnpM+v4k5NWiWtjYn7IIYcUa0rHhUCjIyBC2eiQZ3NCnLOzdtC2lEHrr79+Awd3XmwM3hYBSlk0CQThENUdFgZujhUSUn0UMt8xY5cIgcZE4PHHH/fBNZgc27Ztmzs1pOWjjz7y2/y20ZiNHj06d5yVFVdc0ZOYYgQur1KBDQhTlNnT8lBGVcUXFPPvTjvt5AluVJnwvqWn+IkS3JJEcIMpRiitnfXWW89tsMEGtumXmKrRTEYdw52AVEVRstFGG3nfSQJyMFFfc8013nT9008/+eKW+WHzzTf318/kGy0faYoIhiFwCgkTSlJF4fYAgb333nu9xhbtLpgcccQRnuj5iv/7R1ksK5BVAoRMwu3a/qglliYIMVpYJuW9evXyJnyuCznhhBO8T29UXe0TAtVEQISymuhPY+c2Qhn26+EymD3jTG9CRGQhYZaNA3ohYfCXCIFaQQDCaEEQEMaghhKtJWZNiAMBZpjD0YpheuUYGRHQWOKOglkzSqvfGNeJRhIiVQsCNkQqBwWyBqEkiAasgkIATByhpBxkmXEIrSGmb/LZEtyHYMq2/Lb4SKJ15VwQRvZjhkeYGLBNwA9WFoRlnz59fBAM2lWzmsw999zex5vJhYkRV9oPEko7XsoScsyHG+gvgToIwT1Jk6aXci6VFQJpICBCmQaKddKGEUqcwhncTRiUeXli6mPAxTSOhgGnejQO+FGizQnO0gslekbbwMshKERuUiec/89MVsGyWhcCaSNAom3ID6ZSiNBRRx2Vdwp+4wikEjLJ8aBZEp9ASCjPBl+DQYM2rQgplIxIF+sz/qfVFMYcAhIx7d9+++25rkBEo8go/pVBwZTNH8QUP8ug4L+IKwFE0gSyR/Ah41PURNvKlbvEf5KJi/mcQnZ/++03T3jLbVP1hEBWCIhQZoXsdNiufV87/DJkNk4ajY4dO3qHeAIFSK/CfvySMNkwszan+GLQRJnxSDuExCUGLtamjguBchHAnQNtEf7AaJ34/YcnRMHE0iuvvHIemeS8yy23nCdlpMPBxxFNWBqBOeVeU5J61j+iwKPIWJI2qlEGbCH99JvsF2iWV1ttNR9IwzH8WnE/CIqVw/yNH2NU6iCCbwhMhGia9hIrC5H2wftPuxBMosxNaHObbbaxzURLJh9MYugv7kz4ir7++ute+4qvaFTapEQNq5AQyAgBEcqMgJ0emyXFiJmN7PqIArXB1fYFl6Qu4usU+BbhtxV+EVP2ySefdDjzFxILPsDxvpCgCS03CKhQuzpWnwiQPYEAEqKPiezlRR6VzgZCwW+b8gTfRAlae4RnCPN3y5Yto4rVzD6ul29T48scFjCBYGOKjYpyzkJbF+5D1DbkDksJaYsYd9A2QihJXwbJJBUPgTmdO3fOCwzCl5KvGxHtjo94lDBpxm9yyy239O49+IqSSo12wxhgTg8K/SmFUDLpwG+VSTzWH/s8I5NyrD6Y9EUqgwhrvRYQEKGshbswjfQBf56wMGsuRCgxczMIkjwZbSVmv7DgX0ZEYxIpVg5NgAhlEiRVphgCBIRhPiUdEL+rgQMH5tLFhOuizcMvkijcuFyrFvhB3VJTaIXPl+Y2X3xp06ZNZM5XyAw+oEz6gj6N5r4STN9DBDSWiOC+NPuZpC0isgkCNFJoqZ24DoRodfJvEjTz6aefeksKY5hFxZt/ZNS5zDJjZnLzAY+63/hcBoOvkt5vfj8kzcetCMHkDQk2Mzu/QfzTRSqj7pD2VRsBEcpq34Fp/PxEWtvLJe5SIJTMppllE2EaLo9WgBl3WNAA8Mk0fIbQ/CDkgSNykxyXlp4lWC+cRy54TOtCoBQEyPPIix3zJy/yIEGIagcNJISAoBI0eGGtlZEENH+4g6QtmHOJLMffsxSBNHONUTkt8Rnl2STHI/7KpNGJEvwIiUzm2+cQoLD/YVSdUvfRl2JiaXxs4orvKmOGBcvgj8jEFheGESNGOPzCuS6zvMQRSlxuMHdDTC1lGqQOAZuw4PZQago3tJokzmciAwEFd/6CQT9El5MYn+vj/OSsZFsiBGoBgRlqoRPqw7SJgJmh7esWcVfBgI7pm8CFKOd+6lPG/gjy4VN1+FLykmTAtGO8DNAE9erVy7/AMDPaMZbF+hLXR+0XAkEEzj//fP/tefZBJk3DFSwTXmdiBCEhiIUvqgRTXkFeaBMh6CxNQcNPoA9JvNEiWoBQ0nOEA02sHgFGTOggTB06dHCFsi6gESShOMSM55b0SmkIZvWuXbv6dD32edY4VwFySaKR5HOZ+Egy8cRkzPURJGV/aA8h0AT+QeDYT55JBN9vsAyLaSfNv5uxz9L4cF47Hq5Xyrb5ZpIDFbM8QV1BMmltYSlCG8x4R35KiRCoFQSkoayVOzEN9sOivm32H3UJDLpoPtAo4qROjjbK8/WJsDBIk8yYCEvMbMzGMZUT0GCClogccmiAIJ20SRoUXjqK+DaUtKwEAcy7Qa0PeR2jBD9B0zpyHJKCtg/Cgm8hv/3VV1/dm1bx40Pwt0vr8334NOPjaHlemVyhQcQUS0BKEoF04XdI34MCEbMvtuD/h/bRgnSC5YLraP2YDPbu3dv7/2FWNm1esFwp62hz6QvuAlwf9wIfxiixT0eaaZ6gFtM4GmEM14OwImby5lOT1AsK2leCYfCNNXM3Fhc0weDNOIj/JTgGJxHBNpKsk6ieiUeh8dTaoSwffpBFxhDRshYQEKGshbuQQR+Cg39wPc1TQegQBn0T8xODRPKyI0IRIY0HgTnMqDHtMLtG+8EgzAyfsryAMW/zEsCJvlu3bpEzdAZcvjpBJCVt4lCPmQ3NBJpQXjgaaO2OaFkqAiToDwpa8iiJ2o97B2ZVJkwQDX7bCEQLDSIasLSiczGtQyYhqRAd/AMJGIJ0hQklfoIIE7WgPProo34z+Ayj8SRfJZpOiAtm7PDzZAnDwSA4vvB8Y+rHEgG5xs2F5zIo+FmCSxK/QjR0fCqxmBA0hS8o1gsjsfhyEtxSTNDAohVk3LFsEsE6jC0IZmb6A8G1CQekG6KJK4+Voyza3VKEsZT+lyt8JELaynLRU720EBChTAvJGmuHQS7tnHC8jPhiBIMqX8Rgds+LChKHMLs3MxBJzjE/M1DzyTJeHvxB/rp37+6jJDH9QSx58TAAY4LCpET5sMYkDC/npW00k5BXXnoET/CH71I4LUi4vraFQBwCaLwrSf7N118ge2gl8akkApzfZNinMu78SffzST58MZMkSTdSB+lBw09f8H824smnIU1oFzJJGjBMwkYmiTrmOYVwQ5YhzkEyafVJvA3R5ZlEsxn+hCLjR1wkvLVR6tK0kwSsRPUp2B6BOwTkMIYQpU2gH9aRqIThaHvJuQvZNMJG9DgTZ9wAzE/yjjvu8F+1YZILyaYs18g4xrjHPrDjPkRpqAkUqkQwg1v/KmlHdYVAJQiIUFaCXp3VJdIV0w/mIQJrIISQOhzQEXL0oSGx2fJ2223nNTNBmNCm4EvGIG3RkZgIeckwQBeKGA+2Y+u8GEnHQRoQXuL4UIlMGjpaVgsBSA2Ei7+sxCKZk7SP2RqtP755FoBCPdxEIMB8mcaEKGOepWBido7xNRkmbEjz5s29SdxvRPwj3ybPZrkkpxgpDJ+SaGjTNIaPhbeZDAd9HjGlMzGNSknGOAc+EEe0zAhjFFaS4PfEGRtJUYS5Hf9RJhN8KhJtJn8EFUIow5+aZPy0dFLhfpaynZbWu5RzqqwQCCPQZMrMKdKeM2Hs/3/xoEWr2s6VFr4gbWePAGZqXhZR5I/Bk8E1beFlwaAsspg2smpvekMA4kLuyLQD1GjTfASZAGYhmNIhrpjgTTOa9nmYEOMnyfiF9hArSanXQx+ZOEuEgBCYioAI5VQstCYEhIAQEAJCQAgIASFQBgJKG1QGaKoiBISAEBACQkAICAEhMBUBEcqpWGhNCAgBISAEhIAQEAJCoAwERCjLAE1VhIAQEAJCQAgIASEgBKYiIEI5FQutCQEhIASEgBAQAkJACJSBgAhlGaCpihAQAkJACAgBISAEhMBUBEQop2KhNSEgBISAEBACQkAICIEyEBChLAM0VRECQkAICAEhIASEgBCYioAI5VQstCYEhIAQEAJCQAgIASFQBgIilGWApipCQAgIASEgBISAEBACUxEQoZyKhdaEgBAQAkJACAgBISAEykBAhLIM0FRFCAgBISAEhIAQEAJCYCoCIpRTsdCaEBACQkAICAEhIASEQBkIiFCWAZqqCAEhIASEgBAQAkJACExFQIRyKhZaEwJCQAgIASEgBISAECgDARHKMkBTFSEgBISAEBACQkAICIGpCIhQTsVCayUg8O+//7q33nrLff755wVrcZxy//33X8FywYPfffedmzhxYnBX5PpXX33lJk2aFHlMO4WAEKgcgV9//dX9/ffflTeUoIWPP/7YPfzww+69995LULr0Im+//bYbPXq045rSlH/++cePQ7///nuazaotITDNIdB0muuxOlwTCLz22mtuzz33dDvssIM7++yzY/t07LHHujfeeMO98sorbo455ogtFzzQo0cP98ILLxSt07FjR7f88su7QYMGBatrXQjUBQJ//PGHO/HEE13btm3ddtttl7vm77//3r300ku57SQrG264YYPnk0ndJpts4tq1a+euvvrqvGaOOOIIt9RSS7njjjsub79tMD6cc8457pBDDvH1bX+h5YgRI/xY0r59e3fllVcWKlrWsQEDBrhHHnnE3XjjjW6DDTYoq42oSnfeeafr06ePO+mkk9zee+8dVSR234cffujGjx8fezzpAX4DM888c9LiKicEMkFAhDITWKvXKLNlZuDzzDNP9TpRxpm//PJLR9+Rn3/+2S8//fTTBi85f+B///766y/HH+VMllhiCdekSRPb1FIITLcIjBkzxg0fPtwNHTrUjR071p1wwgluhhlm8ATlyCOPLOm677nnHrfqqqtG1onSUD777LPu66+/zpW/5ZZbHPuuuuoqN9NMM7mffvrJvfnmm+6zzz7LlSm2suOOO/r6XBNWivnnn79YldxxtJtYTQrJRx995A8zPk6YMCG26IwzzujJcmyB0IFi5w0Vz9u877773PXXX5+3r5yN+++/37Vq1aqcqqojBFJDQIQyNSir29DAgQPd008/7XjJoLlAe7D22mt7DcK8885b3c4VOTukcLPNNmtQKqh1aXDwfzuY3Xfo0CF3+MUXX3S1fr25zmplmkIAQnLBBRf4CQ/a8W7dukX2H7MqL3hcPdBANW/e3K2yyiquS5cubqONNoqsU87OddZZx917773u6KOPdjfddJMnkpdcckmuqc0339zxV0geeughxzNTqWCFQMM4efLk2KZefvll179//9jjHIAQQ2APOuggt+CCCxYs2717d7fuuuv6MrvttpsnoQUr/O8g2tVCApEdOXJkoSKpH9tjjz3ckksuWXa7iy66aNl1VVEIpIWACGVaSFapHXwTTz/9dP9ioQuzzDKLm3POOR0zdv5effVVd8MNN7jFFlusSj0sflpeInvttVeu4BNPPOHQWO66664FzTi33Xabm2222VzXrl19XTQLSc3quZNpRQgkQAC3Clw7fvvtN18aV4soYWJ34YUX5rRlaOvQhvGHfyCaQ8zAacmyyy7r0C4eddRRXlu57777ek0l7a+00kr+2YDU/vnnn65ly5aerKEV69y5s39W6FcahDLJ9aCtfOaZZ5IU9drNYgW32GKLXBHGCkz9cYLGdPDgwW6++eZzW265ZVwxvz88huDTCWaYyXEBKFVwP4BMM04tssgikdW32mort+aaa0YeC+8Ex5tvvtkdeOCBRUl3uK62hUCWCIhQZoluI7R9xx13eDLJiwufJQbLpk2beh9EXl68MC6++GJ30UUXVdwb2n/sscd8O2gVEQba5557zq/zknr//ffduHHj/Db/MF0hnTp1yjNF45d1xhln+GP09+STT/br/EPrCKE8/vjjCxJEfJfQxAbr5hrRihBIAQGICBM2zMoIZCMuqOPdd9915513ni/Hs4DmEBcMAtOuueYa/5xedtllXqu2xhpr+HJp/Jt11lm9qZjnEy2oPZu0TV8POOAA98UXX3hCy2Tt0ksvdQ8++KCfaNr5GT+ylq233jrSEhE8L+MZ/QM7tI6FZPbZZ88dLmbiHzVqlCeUaHVt3MlVLrLyySefuIFTJgrgXA6hHDZsmNfMQvDjCKV1AV9ztMb4xjJZjpJzzz3XPfXUU95FiN+mRAjUCgIilLVyJ8rsB35LyKGHHuq22WabXCvMpiFkDJ7PP/+8N0VV6luIOQvyhxhRZNCzfda+baMxMP8r/CKDPlG2P9fhiJUzzzwzdlCleCW+SxGn0y4h0AABAi14eaP151nCnI1GMEqefPJJv3vllVfOm8AtvvjiPmgDiwHaKsqlQSiJWn788ce9dpJnzsgFhJI+zz333F6rikZrv/32c2gzW7Ro4SdsaOsgmhDdww8/3JMluyYmjWhizZeZ4BxM+AhuNJDkcgTSWsy320gUy2Jlw33gmuN8NrHUID/++KN3DwjXtW0IXzENppVNe8n4yu8NAosLAYFQYcsSk3euEyy5pxIhUEsIiFDW0t0ooy9oHhh0Nt544wa1V1ttNb8PYvfNN9+4hRdeuEGZUnaccsopjj+E6O0hQ4b4wRfNSJSgFcXcjvAyw9+rFEGLIhEC1UQActa6dWuv5YdIQSjjhGcMWWGFFSKLrLjiip5QWrnIQiXshODip0lADlo909gR7cuzjokeC8Jyyy3nNX40zaQPP1D8rCEmEJhwRHXv3r1zE0bqoHmlHII5v1xC6RuY8u/bb7+NNWlDkhEsHWj2ooTxLgrju+++25v9o+rYPsz7hUz8aDCrRSi5N7feeqs77LDDPD4EKV1++eVurbXW8t0naNHGWrJrMFGRCIFaQkCEspbuRhl9wTwSJ5YjEu1KpWQyeI4ffvjBa1nY9+ijj/rUQWH/H3KyMcCb8OJ7/fXXnZFc219oib8VfY8TUp1IhECWCOyzzz7eRI1/bjGBiOCGQUAHmrCghg3Ts1kT0iIsBLiQtodgGII6rrvuOv+cYz3AYsHzhkby2muv9RotnltICcEuTPZ22WUXTyoho8ccc0zu8pg0YuqnnSuuuMITUtpH4iLBc5UTrKB9o3+FBC1wnCYYU3ghszWEeKGFFvLN42POpDtMgtFYQkptfEEjG5cCqVA/0z7GOI1vOPcAn1t+f6zjI0okPS5MuF2k6Yeb9jWovfpFQIRyOr33DKS8DJBikZ6lQoDWw/y0II5EZJLbDU2OyQMPPODNZpiQSC/CbJqBshRCyTUUMmtbmiE7p5ZCIG0ESslXSMQx5SGUaJeIQibCm4kdZACT9zLLLFOWH17UdUFY+/Xr5/CpI0gDgggJw9cPkzF9wWdzrrnm8tUJ/ECLicmd42gm8T1cf/3185rH1xHB1M0Y0qxZs6L+jHkNJNxYb731GuSDhOihmYw6hjk7OEmNOw05Gc1XEV9WPoBABgxcABA0pBBo8ONcBAWaeT+uzcbcj4YZTTCEl6j9Xr16+eBKrgEhPZRdX2P2S+cSAsUQEKEshtA0ehzTCKYwZuBpzrwhcXfddZcniLwoSffDefbff3/vm2S50HiBkqCY4BoI5c477+wDB3A2X2CBBRKhmjYRTnRSFRICZSKAyZKJFQSPND5nnXVWXktoJgnaSTMAhnMSlAYJgRRZqh20lxzjz4QJWlAgu0z8yhEmlOYrXU596uBHSqRyUMANkse4Ek4Sjv9pEkIZbA9yDKlmMmtaPczKRL2TWQIyWauCjyvZBBi/zRKFaxNjqUQI1CICIpS1eFcq7BMRiQyaDJbnn39+zvxTYbO+Oo7iaFqYJdM2gTbMovlqDilLMNOQCxPTDKYniy4n+pQAAIgmEZyFhFx94Rk4Lz5emmhZgiI/oiAaWq8mAmjTCYTDDQTh90puQSZe+CwSKc6EjOclTVLJuYKTxttvv93xpZqwWKANfQwL2sztt98+vDtyG+IKOQ2a9CMLVnEnfuNEjFuaJzS4liMTfBDM+oxnkM5gwGAVu93g1PhPotUmSTwC9lyT+cs2qKAdQqCKCIhQVhH8LE7NTBaihxD1maaW75133vEmtjZt2uT5Uq2++ure7M3nEhGIJOYaIkJNMDeROgjNCZpLEj3HSVT0Il/PQCwtS1xd7RcC1UIAzSSBarzsyVDA7x3fS8gXATBoEjE381xSNm0hAI60NvgrM7GLk6hj9DMpocQ/FDETctx5qrmfJPQEtJhAMIPb7MddAGEsqkVCiakeDS55MNE8oxHGLxZrEPdapNLfPv2rIQREKGvoZlTaFUxFvLSYiRMpiCN3WkKaH8zVaFiI8A4L58NZnmhQTNxRWkhMTERu9+zZ00ef4uuF8JK1/Jbhdm3bcv9FaVesDMu2U/ynzAcsuF/rQiBLBHg+LIsBASP47plgKeBrTpifSdHDpO/UU08tmGPV6iZd8uxjDYB8QFYtaIVnEaKICZmgIPwpybhArlhSAVkS71JMv7ixILX8RSpSN4XHlN133937ftt9MmwJ2DFNpu2r9pJE6Iyz+LESWGWfZyQ4Cj9Tkcpq3yGdPwoBEcooVKbBfQxAkDgIHxq+Yp8XK/USMbVgxuZFSfAB5wsKGg7IIi8tHOqjtB34V+L/QyQsWlR76WGei9KaBNu39WLliJIUoTS0tGwsBEhzg1kbCQe5WB9sP6Zx/I4tHYwdr2TJN7QR3E54FvljYok2FCLLZNA+QMA6OWuJ7kaTmkTwOcRkj/mer3EhcV8LStJe1mVwN+CjB0FBw8dfeH+wTLXXGWP79u3rNdr0hd8IZnnTBuPOhHuRSGW175TOH4WACGUUKtPYPrQNOJzzQmOwKabFK+fyMAltu+22eelFgu0wEPKCInq0T58+wUN560RXojnAv4lIWDQJaG2YcYcFX82DDz7Yaw8sqpxPp+H7dNppp7ngp9esrmk9bVtLIdAYCEBSIFoQLyZIUb9N82uE7JEbMi1hEoePHQEbfF7RBJMuORdJO2PBOhzDJw9rAv7MmMhxQSkkBMPQNs8deRpNM4nrS2MKaY+SSvcpEfa//PJLXnH7GAPjTlAgawTuVFsISCJHKBMONMeMifwF/W2XXnppN2DAAB9QBKnEMsS2RAjUAgK1G+JWC+hMA32AdDHooEHkW7GY0rISEiUHX0zB82A2IuEwZppwzrdgORz5e/To4fC7tJcfJBSiaH+Y5UhNhKYVLQsDph1Du0n7vXr18qk10ETYMZa0JRECjY0A/myWYojfpmkDrR9o9C05ONHNRsrseCVL007apAxCggWA4B8mbJZDMngOJnEEvmHVCOZ7xLUEP2dSgZmmn4kqqYOYDHINfHmL7BFpkuJg34LrfDWGcQ1ztX1i1caNYLnwOn6e4T98WXFNCO9PK9F8uA+lbuNzzmQDwos2GCVBkExae2iGuUeMd2m6NVn7WgqBchFoWm5F1asNBMgjN2nSJN8ZSJh9Ii3cO8ggA3NWArEjsTIz6GLCgNmxY0c/eAbL8jLj5YbmBNMabZErL/jiQhNE2iISI3O95PzjqxFcmyK+g2hqvbERwDJAMMiHH37oJ3lMvpj8kFgbXziE36gRozT6B7kjUIOE47iicB5IItor8sLyTEb5RzKxQyPWrVs3r+1nYkqkOOZxiCiuM/jukbqHzAqsI0RL85xCZIIpidK4lqg2ILJcE6SWMQYrSZLE8FHj4KabbupPwffMw8KEvJiAs335K1iW728jaIOjPilL1oskwre+SVKfZLJBWT78IItMEmRVprEQEKFsLKQzOo9FXFrzlhrDthtziSktqZhPEAMwJjuiY0nci3M82g8Cd3jZRc3QGXB5sZFKCLMeGhr8jDDH4bvJC0cDbdI7oXKlIGDkzJbBupAuJkQExTDRIXjFJntoA/l9Yn5OQhiC7RZaN+0kOQsRlnwqsV27dv5zkYWeAyZs+OTxnEGUCNzhi1dYObAg8KnIoGByRjOG4FpTrmA+55m3gKBC7fD8h7W9hcqXeyw8jka1U+yzjRA8/soRJseFPglZrE1y+0pbWQwlHc8aARHKrBHOuP1hU6I7p2VB+4ApDd8zXrqYufHvKpbGA+d6NJ1oJgcPHuw/Lzdq1CjHH8E/4ZfhtIyR+l47CJASi784YTKENQAhVQ1fd8EVJGky/7h2o/ZDQNBEQgyJIkfQKJI2CFIYRXrD7RDxDalkHLHPp8YRE3LPEjXOhC1oNaBN2kFDmkRrCUm0TyOG+9PY25iV0cbiA44UCjSCcO+0004ldxGySCaLQjJo0KBCh4seo99x961oZRUQAikhIEKZEpBqpjACcS8aTIAE8fCS4aWID1EpwkuTiFWiz3kpjh8/XmSyFABVNjMEzLc3qxNgAsYfk0mVPV+s81eKkDOWv0LChA8tHuQ4KjIcYsZfWmLXU057cXVJMh8WrglSjuA2EEUYuY9EW5NXFM1vqYKmGj9Ns8oE6zMpJitGpaKclJUiqPppINBkiol0clRDE8aO87tbtJoaNRhVTvvqEwFM1URNEgQTNVAaKpTBGT4umMfKFVvil0aktzSPxZDScSEQjQDWACZg5T6LkErIERrRYsL4QE5MfCCLWRuCbRFJzre2qVfIXB+sY+v2RSK0pUmFfqKhhISWer6k51A5IVAvCIhQ1sud1nUKASEgBISAEBACQiAjBJQ2KCNg1awQEAJCQAgIASEgBOoFARHKernTuk4hIASEgBAQAkJACGSEgAhlRsCqWSEgBISAEBACQkAI1AsCIpT1cqd1nUJACAgBISAEhIAQyAgBEcqMgFWzQkAICAEhIASEgBCoFwREKOvlTus6hYAQEAJCQAgIASGQEQJNye1XSIodL1RXx4SAEBACQkAICAEhIASmfwSkoZz+77GuUAgIASEgBISAEBACmSIgQpkpvGpcCAgBISAEhIAQEALTPwIilNP/PdYVCgEhIASEgBAQAkIgUwREKDOFV40LASEgBISAEBACQmD6R0CEcvq/x7pCISAEhIAQEAJCQAhkioAIZabwqnEhIASEgBAQAkJACEz/CIhQTv/3WFcoBISAEBACQkAICIFMERChzBReNS4EhIAQEAJCQAgIgekfARHK6f8eV+0KR48e7X799deSz//dd9+5iRMnFq331VdfuUmTJhUtpwJCoB4R+OGHH9ygQYPc7bff3uiXz7P5zTfflHTejz/+2D3yyCPuvffeK6leksLPPvuse/fdd93kyZOTFK+ozEcffeReeumlssa+ik6sykKgygg0rfL5dfppCIGffvrJvfLKK5E93mijjdxMM82UO/b222+7/fbbz2222Wbu8ssvz+1PstKzZ083atQo9+KLL7o55pgjtspWW23lll9+eXfXXXfFltEBIVCvCECezj//fPf777+7tdZay62wwgplQQHB22uvvdwuu+zijjnmmFwbtA9hnW+++dzmm2+e289Kly5d3JJLLumP5x0osPHcc8+58847z7Vr185ddtllBUo2PPT111+7Xr16uUMOOcS1bt06r8D48ePd4Ycf7maffXb39NNPu9lmmy3veBob5557rmvVqpXbbrvt3C233OLuvvtud+edd7qVV165YPMffvihe//99wuWSXJw0003dTPPPHOSoiojBDJDQIQyM2inv4bffPNNd+SRR0Ze2LBhw9wCCyyQO/bMM8/49bZt2+b2FVr58ssv3T///OOL/PLLL3756aefFiSUf//9t+PToJQzWWKJJVyTJk1sU0shUFUEfvzxR9e0adOCv+OsOgjR22OPPdwNN9zgBg4c6M4555yyTsVzhqUh/BlentfevXu71VZbrQGhLOdEXbt2dddcc40bMWKEw0ox//zzJ27mnnvucRBSJqKnnHKK22GHHXJ1r776avfff/+5eeaZx9188825/XErq6++ultnnXX84VtvvdVrTaPKLr744q5v376eEKIFZvIMoSxFHnjgAXfjjTeWUiWyLAQWQisRAtVEQISymuindO4///zT9e/f37366qvunXfe8a0yuDAwHnDAAW6WWWZJ6Uz/38x6663nNt54Y79x4YUXullnndWNGzfOff7557nzDBkyxK+jOWCwCwuD8YYbbuh386Lq2LFjuIjbaaedGuwL72B2j6bSBNPWvPPOa5taCoGyESj3ueL3PGDAAG9qhhgh/N73339/t+OOO5bdn6iKPPPHH3981CG/77fffvPLwYMHe7IVV5BnBm1jloJ1A1wKyQwzzOAnlocddljeBDWqDlpTI35oINGInn322V5TyTh42mmnOSwlTz31lK/O+HTllVdGNZW3b+edd861i+uNmeAh1ohZYmaccUa/PXz4cL+08cxvlPhv11139f0vsVqu+KKLLppb14oQqBYCIpTVQj6l8zLgHXXUUe6tt97yLTIgY4rCf5E/CNYVV1zhFl544ZTO6LxJicEcEolALtEQ2MAdPBEF4y0aAABAAElEQVTagSjp0KFDjlDSZzQpJrSDDxYDuw3ediy4xKQEmTWtAAN8IRN5sK7WhUAhBMp9rv7991937LHHOiMZ/CZ5HiEzaPM++OADd8IJJxQ6dUnHIK/0FXNu1ERq7rnndvwVE7SoWctnn32Ww6XYuWw8K1SOMSQo2267rVt22WXdwQcf7DWq+JBCtsGfiTVuOUlkoYUWyhXjXvKHtJ1ibcHtBxIfFMzoyNChQ/2Ya5P6Sy+9NA97NJidO3cOVs2td+rUya2xxhq57UIr4IjmlAnKggsuWKiojgmBRkUg+1GkUS+n/k6G7w6DL4SRFxa+Ugygzz//vDv11FO9xhKT18knn5w6OEYg27dv7wc2/HgQiB6Davfu3V2LFi0izxvcz8vsxBNPzJVD6wihZCAvRBDRfC611FJ5dXONaEUIVIBAuc8Vpk8jk0cccYTXsqMlxKzJ7xUisMEGG+Q0/BV0Ma/qlltu6Z//vJ01toElAVJWSPCHZgIMdvhsFhJIdFhWWWUVd++993rt5qGHHurdYTB1c14mrsVkscUWK8nU/sYbb7gxY8b4Zl9++eW85vEBDwpa6mICWSUwCSIc5+t5wQUXOFyKcDlgjJcIgVpBQISyVu5EGf1gtmwvr6uuusq1bNky1wokD1KGUz4+SVkRSjSIEEkjfvSJl3Hz5s29A3+SQTzX6dAK5qu4QZWi+EVJhEDaCJT7XKGdNH+4LbbYwh144IG+a/gyYn7FB3ns2LGuX79+qRPKtDEgWKRHjx5eC8akDeF5Y6KKJi34XOLzjG8iloplllkmtiuMFZC7QmLtsixWNtgOEeVMrNECYv597bXXfFAfBPGLL77Is4AE64XX99lnn5xGMnwsavv666/3uyF2pjGF8OFiwH0OjslYUwoJigDawScckkowI/0PCvhDJpmE01eJEKglBEQoa+lulNgXTDrM4jFpBQcua4YAFYTAgLSFFB9ET26yySY5Msk50MIQVYo5BtMMgQAMtEEn+aR9efjhh5MWVTkhkBoC5T5XEAHSWGHmxg0lLERIQzIhlmiXGsPMHO5D0m20azzf+A1CdBCebTSwTE532223XFNYFPClpvxZZ52V2x+38u233+ZcdMJlzFyMa4BNlsNlmjVrlhexDpb77ruvI10PJAuc8R/HwoGZm7EHYmZ9hpRhyQn6ln/yySf++oqRvmBfcGOgj/SHc9j9tMk14zKTiaRCMCHBU+bChF/lJZdc4tZcc03fBNeJggAhgCmJxtMX1j8h0EgIiFA2EtBZnAYtYCF/LIu0tgEpzT6Y31AwXQjEFU0FA90222zjMAcxeC+33HJlnfrxxx93c845Z2xdM7HHFtABIVAGAuU+VxAahN8/ASJhIYAEsokmE/JZSJsXrtvY22auhXhZsB2+ykzyMNtDdkyI8kZLiVYOMlcsOhvtW1y2CGuTAKG4ICF8q9H4mpjLDG4zBP2gXSX9EOSSMQlCDNZ77723e+yxx9wLL7zg91988cU5UkaEOIQ5SDKtfQussih328bNCC0i+41MWp1yl7R50003udNPP93jycT8pJNO8v7kt912m782TP2m/S73PKonBLJAQIQyC1Sr1CaaFcxSzO4feughR0oKHPUxXaUtmJSQ4AwcJ/Tvv//e53xLY4DlWnj5xkmhY3F1tF8IlIpA0ucKrT2CxipKIJMQBlJkQT7TIJRZuH3QJom50epBjk1rCNFmooiPImnCgkEuu+++uzvzzDM9KSMoJolAsNdff/28oowruOhEHYPYcu4oIcKaY+ShpG/XXXed11DivoBYwBI5LskeQRAh1h0IISb8P/74w5cLE0qixIPkmUI2ke3Vq5d3YWAfeJlY0A7uD8HxkeNks7DIdCsfXpJPEkJMjl36h9YXXExBgH/lIossEq6mbSFQdQREKKt+C9LpAF+BCKckYbDGPLX00kunc5JAK926dfMD3LXXXuv9ljB3mUaBdCs411u6DaLBw8nH8TGzQT7QbN4qgQYSIVBNBEp5roIayrg+Q9KMUMaVKWU/EzhkrrnmKqVawbIQyJ9//tknGKegkTJMuJiNIW5o0YKEEqLJhJLnnA8aJBHM0mjggkJScAglQTSMMUEh6CWOUFIOkoWGErMxJnCuAT9yBFM22whaVNyBOBcWEPab1hFtJttoAZkAsMStB0GzidnZUqbhExoe13zB//3DwhIWxuJihNLqgCPWHaxQBOogEOfwOG/ltRQC1UZAhLLadyCl8+PEvuKKK3rzzoQJE/zAxwCIuaRPnz4+nUZKp/LNrL322g5SiAmJP74IYb5WOKUHhWTD/AWFr1nEEUoGzfAMHI0rAzjpNYISdloPHtO6EKgUgVKeKyZSSCHtPL9hxMr6jQr+GaEMprqpoDlf1czd5iqDhhaBUPK1HQgRKclMc8kxCBt+fQOnkDnGg2oJgTz4IDLmBckeRDSKjIZ9uxm7+IOYYu5Hi0zAIwLJhVzbNvuIKjctMWb/MAlGmwmBNSk1zQ/3gD5YGiXILlkDoiLc7RxaCoFqISBCWS3kUz4v5igbMPmqBb6LzMBff/11R5Lg++67L/VBiFyUvDyefPJJTy5JT2SkkstDQ4mzPmaecJJy+hsnUdGLaC0QIr8lQqCxECjlubJoaNOKRfXRjlnZqDKl7LNv2ZdKVAqdA20dASKmSUNLi5gpf8899/QTViPH1hamYTR46667ru2qypIxCO0nRBjrCK4ITGDpP8ewpoQ/Q2nlqIdbQthUHXchwfRn+GSi1YSIMoFeddVV3ciRI/2Xewy7uHai9vNbIfUR/eUrZExU8D896KCDvElfpDIKNe2rJgIilNVEP6NzE2VovjpoEfE9gpClbULmazy8VCz/Gi8StBZoMjAp2QuHwZSv65AyBQf2Nm3a5F05+SyfeOKJvH3hDUgyEsxXGS7DNuap4JdzosponxAoB4Fiz5W5lpCmJk4swCUN/0nOkYWGsmfPnt5sbZ9ShcTwLGMBQUjNw599OcbvnPIPf8tCQYJWLsslfdp666295hCCR1Q0hPK4447zJBMXHUzRjBFBX08++chHGCBwjFWlCm4MBCtxbrS1EEqCgMCD1EIE2ZQifFUIX0nSIfFboX8IbaIkEKksBU2VbSwERCgbC+kMzoPDOBGNzJJXWmmlBmfApMwxzCUWMNCgUAU7eMkwSyYNCAM52gmiN4msxDE+KJTB/woTNebroFmQAZII0SRSrBymPxHKJEiqTBwC5T5XRiiJ4Mb8Gc5QgKaJ5wTtn5WN60PS/VloKDm3kUmeW0gwk0CbICbtWzXKMT5A7owUktIIMQLPBPv+++/3ZmvSmhFYw1jE/ULC98zvjPmHBtE+eUh6H0zfRF/b98KZVJMFg/MRtJQk2wXuSviiWgAOAUMkemeSjmAF6j7lgxEilTE3RburikDxTwdUtXs6eSEESMuDj2Tc7BdtoA2o+DimJfh/kWKDgB/IIyYiXjYMdny7G+JoudjsnLygunTp4tOlMMAGBa0AGtTwHzN+fKKCLzJIMmYl0oaEy7NNWxIhUAkC5T5XkESihHk+eBbCYr53mNFLyXcYbie4bSb0NH0og+3jzoKErQrBMo21br6chc5HsBBin3Il4wVjhvlrQywZV9C28llaxivECGV43PIHA/+YNONjibXH3HjQhD766KP+s4phVwaCjjCz43Zk5D/QXN4qLkr4oUImmajzfXJ+R0YmKcxvDI0n1wOpLJZ+Ke8E2hACGSMgQpkxwFk2jyaO2TU+TqSWsDxpnBMTMc7gpMMgsMD8odLoD+dk1kxOOsge5hc0pTiyk4OO7ShhP+UxOwX7Sv/wWbI/IlZJecRsn8GYQdVeCrwMMK1xvQzkpNiweixpSyIEKkGg3OcKMmkkg98pL3wTCId9qhTf4zQEMomfMs9cmlHewb6R+xDBlFsNIeE4eScJdrHck1EfcaBv5JJkAo0PI4SRABpMxpBF+yY3S77kxVhB4F/fvn39MXwdET7EwHETyB2ftCXFEO4FjEcQP8ZXAm4uuugiP+7RJyb3YcEt6Oijj/Zf64FU8tGHOCEAhy+LQSqJ6rbxMlyedEKkRWJMBBuJEKgVBGTyrpU7UUY/GFDwDSLwBY0hpmQGG0wvvGgwr/GSg3xBvNISNIS0yWydKEdeZmglOV+h729DBBksib7ke9/hFyuDNKmHeInhh8ZsH/NP0FTEPo7zrV9IJ5Hs22+/vSPpMu1LhEClCFTyXEEC0HzhYgIJ4nlkUocZHIHs8HtNQ6I+LpBGu9YG18FEEbNrlEuNlctyif/1xIkTPYaMYaQnwj88SpjQIhZpDeE2jaMRxnA9CCtiPtp8xci0luy3VEWMo5jR+cNXHKKImZtzksSeSbKdi3pBMRM1Ewr8U5mMRwkYc0/5/RUTyuJ3npamu9j5dFwIJEFAhDIJSjVcBtMOLy0GNzSVDIgImjoiG3HsTtPcbVCQQsMEcseLhxfltttua7u9OTy38b8VtI4QQbSO5FNDY4lmYejQod7UwwyegZlk7Fxb0NxtbTHgMpA/+OCDrn///n4wZ8bOy5rz4yelgdbQ0rIcBMp9rvht8lvsNcU3zz5fyPnxm0Tzybeao37T5fTRNJ7Br1WV005UHVxZmDQiRtCiypWzj/yVEKc4AhZsE6yGhfyxg8dtnWBAUhkxqSRgCCGS21IgWbmoJWMXEer4TxqmVo4xCk0k0d/h+wYJxZWH+20+p1YvvCQ7BdrTsEncyjEmhlOr2bEkS84vbWUSpFQmSwREKLNEt5Haxpx9xx13+K/K4NTNy4tgHMwnWQuma87HjJ2XJX5OkFtm9Gg4kGBqDfwtGbx5SaCFhPiiZaUdjpEyCPNSsc+3YXYnhxwkdsiQId6viK9V8If5ySJSs75+tT/9IlDucwWpwc8NooKmkueQSV85qWPi0OU5IxIY60AWaXrwjya4pX379v4vrh/l7IeYpe3zadpJgl8YjwoJgTsE5DCG4NfINrkdoxKG43NpAT3hNvFf5HxRn9kMl4U88+WcuPROYb/ycP1i21hxRCiLoaTjWSMgQpk1wo3YPqZoXlxZS3DAxgzF58HQLLLOMXwrMX/zIsVcxkspKCQexjRuhBcfJV4ylOMaShHa6Ny5s/fxGj58uNcCiEyWgqDKFkOg3OeqEBkpds5ixyFDTOKYrLGepuAnSFAIUcqmpYxqH1x4lgvllI2ql2RfcIxJUh7/w4+mfM4Sl5piwqS7X79+uWKMPbjMlPqJWgIG+UsqTJjDQn/TmBAoJ2UYWW1XA4EmUyISJ0ed+LMPJvjdSyzbIuqw9tUhAji3MxgzI8epPU5whMePk1l5KWk44tpjP9oetJgii4VQ0rF6QgCtGv6FS0+J/M1C0N7FadSKnY9UZTz7pfaNQBpSFaHNzcpthXEM/0oIMWMUY1nYnF3s+godxy+TMXC11VYreYJcqF0dEwK1joAIZa3fIfVPCAgBISAEhIAQEAI1jkD2TnY1DoC6JwSEgBAQAkJACAgBIVAZAiKUleGn2kJACAgBISAEhIAQqHsEmhbLT1jseN0jKACEgBAQAkJACAgBIVDnCEhDWec/AF2+EBACQkAICAEhIAQqRUCEslIEVV8ICAEhIASEgBAQAnWOgAhlnf8AdPlCQAgIASEgBISAEKgUARHKShFUfSEgBISAEBACQkAI1DkCIpR1/gPQ5QsBISAEhIAQEAJCoFIERCgrRVD1hYAQEAJCQAgIASFQ5wiIUNb5D0CXLwSEgBAQAkJACAiBShEQoawUQdUXAkJACAgBISAEhECdIyBCWec/AF2+EBACQkAICAEhIAQqRUCEslIEVV8ICAEhIASEgBAQAnWOgAhlnf8AdPlCQAgIASEgBISAEKgUARHKShFUfSEgBISAEBACQkAI1DkCIpR1/gOoxcv/7rvv3MSJE4t27auvvnKTJk0qWk4FhIAQKA+BX3/91f3999/lVS6x1scff+wefvhh995775VYM1nxt99+240ePdpxTWnKP//848eh33//Pc1m1ZYQmOYQaDrN9VgdrioCvFwef/zxivqw5JJLutatW8e20aNHD/fCCy+4V155xc0xxxyx5Tp27OiWX355N2jQoNgyOiAEplcE/vjjD3fiiSe6tm3buu222y53md9//7176aWXcttJVjbccMMGzxqTuk022cS1a9fOXX311XnNHHHEEW6ppZZyxx13XN5+23jttdfcOeec4w455BBf3/YXWo4YMcKdffbZrn379u7KK68sVLSsYwMGDHCPPPKIu/HGG90GG2xQVhtRle68807Xp08fd9JJJ7m99947qkjsvg8//NCNHz8+9njSA/wGZp555qTFVU4IZIKACGUmsE6/jTILh/BVIp06dXKXXHJJXhNffvmlY6aP/Pzzz3756aefNnjJ+QP/+/fXX385/ihnssQSS7gmTZrYppZCYLpFYMyYMW748OFu6NChbuzYse6EE05wM8wwgycoRx55ZEnXfc8997hVV101sk6UhvLZZ591X3/9da78Lbfc4th31VVXuZlmmsn99NNP7s0333SfffZZrkyxlR133NHX55qwUsw///zFquSOo938999/c9tRKx999JHfjYZywoQJUUX8vhlnnNGT5dgCoQPFzhsqnrd53333ueuvvz5vXzkb999/v2vVqlU5VVVHCKSGgAhlalDWRkNoLY455hj3yy+/+A4dffTRbs0110y9c2gnDjrooAbt8pLhZbDssss2mDF/8cUXkZoHSOFmm23WoK2g1qXBwf/tYHbfoUOH3OEXX3zRzTvvvLltrQiBchFAy3fvvfe6t956y0FY+M2vvPLKbocddnDrrrtuomazfB7XWWcd3z+e8ZtuuskTyeBEbfPNN3f8FZKHHnrI8cxUKm+88YZDwzh58uTYpl5++WXXv3//2OMcgBBDYBlbFlxwwYJlu3fvnrsPu+22mx93Clb430G0q4UEIjty5MhCRVI/tsceezgsN+XKoosuWm5V1RMCqSEgQpkalLXR0MUXX+yeeeaZXGe+/fbb3HqaKwsssIDr2rVrgybRXg4ePNg98cQTDQZIzDtRpixeInvttVeuLeqisdx1110bkNJcoSkrt912m5ttttly/UCzUMhEHqyrdSFQCIHbb7/dm2xNa85v64MPPvB//L5PPvlkBwkoJlk/j0zc0C4eddRRXlu57777ek0l/VpppZX8s8Fz9+eff7qWLVt6soZWrHPnzv5ZQVOXBqEshgPH0VYGx6ZCddBuFpMtttgiV4SxAlN/nKAx5b7NN998bsstt4wr5veHxxB8OsEMMzkuAKUKExPINOPlIossEll9q622SjzxB8ebb77ZHXjggUVJd+TJtFMIZISACGVGwFajWfyWbr31Vte0aVM3yyyzpO58HnVNDJSff/557pCZuCCFkE6TQoM4/eUFbYLWEUJ5/PHHFySI+C6hNQrWtTa0FALlIgCBOPPMM311NF/777+/W3zxxf3v/Pzzz/c+xPj6QQIgKHHSWM/jrLPO6k3F+Cx26dLFu4FYnzDvHnDAAQ7rAAEvPJeXXnqpe/DBB90NN9xgxbyZOreR0crWW28daYkInu6OO+7w/UPrCvaFZPbZZ88dLmbiHzVqlCeUaHXPOOOMXL0kK5988okbOHCgA+dyCOWwYcO8ZhaCH0corR/4jaM1xjeWyXKUnHvuue6pp57yLkKnn356VBHtEwJVQUCEsiqwp39SzESnnHKK+++///zMFfPTO++8k/6JQi2iyRkyZEhor3MXXHBB3r5ynOB5qccNqjReie9SXue0IQQCCPBCRzAXB8kHpPKyyy5z66+/vvvhhx+8iXfbbbcN1Jy62hjPI1HLBMihnWRSZuQCFxIIx9xzz+2DXJjk7bffft4NpUWLFt40jrYOonnNNde4ww8/3JMl6/1jjz3mfvvtt5wvM8E5+Ogha6+9tsNPuRzBt3KeeeYpWNWed5bFyoYb4pptQhs+9uqrr/pdP/74o3cPCB+3bQhfocmvlctiibsAgT0QWFwICIRabLHF8k713HPP+XsLltxTiRCoJQREKGvpblTQF14MmK94YRx22GH+ZVdBc4mr4q+Jmc3kvPPO8+YdTNtBvx40OebXaWWLLdGiSIRAYyPQrFkzH62LBjIsBHxBLCGUkJM4aYznEbKLfycBOWgdTWNHtO/CCy/sySSm2uWWW86h8UPoP5M9fDshYBCYsBtK79698/wR3333XV+O+hdeeGHZhJL6CG44cSZtSDLy/vvvOzR7UQLJWmGFFRocuvvuu73Zv8GBwA7M+4VM/Ggwq0UouTdYmBi/wYcgpcsvv9yttdZa/gpwv0ALjeDHy+9QIgRqCQERylq6G2X2BSKJ+YoBCVMcs9fGEhzJg87kZtJZccUV8/aX0x/8reacc87YqqQ6kQiBtBEo5BuJe8e4ceP8KeOC3RrreSTAhbQ9WCPo83XXXeeJJEFxhx56qHv99df9BPPaa6/1YwIkGFJCsMtFF13kdtllF08qIaNMDE2wdOBzSDtXXHGFJ6SGSVwkuNVNskT7Rv8KCX6h/EUJpvCg5jhcBkK80EIL+d1YbDD3h7WqaCwhpTa+oJGNS4EUbj/LbSYC+IZzD3BR2Gefffw6PqJE0vPbwseTdEwSIVBrCIhQ1todKaM/mLowczHQrr766mW0UF4VzC+9evXKq8xLCOnWrZs3w9lBAgJKTTfEy6CQWdsCJuwcWgqBtBEgTRYBLWgjIWgQMX6Te+65p4/4jjpfYz2PmIT79evn8KkjSAOCCAnD1w+TMW4mmOjnmmsu3000rmgxn3zySX8czSS+h5jwg4KvI4KpG0KJxraYP2OwftL19dZbr0E+SIgemsmoY5iz0UIWE3Iy2sSW4CM+gPD00097FwDqoiGFQIMf5yIo0FKVFWu7MY6jYUYTDOElap8xFly4BoT0UHZ9jdEfnUMIJEVAhDIpUjVaDpMWgTHMbEslbOVcEiQPQRvKgMx5gxLetmNmjrPtJMtiKU+StKEyQqASBAgMg4CZ8LLnBY/GKEoa+3nkOSQojX5BiizVDtpLjvFnYs+ubTdv3tw98MADtlnSkgksfpuVyBprrOH9vYNtkP5o2BSSRxqxcJJwoqWTEMpge5BjSDVaP9PqYVZmkkBmCchkrQo+rny4Ac2p+fVuvPHGbuedd67VLqtfdY5AZSNCnYNX7cvHhMVMFuGlYuabLPtlGkh8IjF/EZSTVEhfkkQ22mijBjNwXny8NMN+bfIjSoKoypSLAKQL7TopacixCpHCj41n7+CDD85rthrPo3UgaK7lmSTCPCwWaANJDgvazO233z68O3Ib4go5LTVoJrKxjHZyv4gY55oRNLiWI9PGLMz6BL5AOktJop5RlyObxX9ymWWWyfmcgj3XVM4EPfIE2ikEUkRAhDJFMBu7KXLcMXBCwBrLkfybb77xl2maSL7Sge9WISEJNGkwkkpU9CJfz0AI+pEIgcZCoGfPnrlTkU4IbSUkBL9DTMnmW0ihajyPuc5NWcGPmrQ2BOrgfxcnUcfIs5mUUFowElHktSp8FYeAFhPGyeA2+3EXQFZZZZWaJJSY6sk1ye8OzTMaYdwuSGPFvRap9LdP/2oIARHKGroZpXSFlEDmtE40IJGYQbGZOSkoKAsBNHNYsFyp62FCyUBNlCl+VuYIb22iESBaMZiP0o4Fl7ykSVVSSMinh0RpV4L18J8yH7Dgfq0LgUoRwKeNP8ylTKIwoxqhrNbzaNeEmRj/TsgHPpUWtIJWFaKICZlPI0KCSYZOYBGpgCyJdymmX3LEIrX8RSq+aBQeU3bffXevYebrR0EhYMfGy+D+aq7jxnTsscd6P1Yyd9jnGfm94U8pUlnNu6NzxyEgQhmHTI3vJ/m3mXAsJUhUl3nJIMx0GaAqlTChtPZw7g9rOBik8ZMqJpjnorQmUfWKlYM4i1BGIad9SRAgfyRadwT3CjR3YbHfdPAb8tV6Hq1vfEMbIYUXfeaP8YEAIfwosRAQRIewvs0223gtqyVw9wcK/INEgwtR7nw0AcG/r1YF9xg+ehAUNHz8hfcHy1R7nSjuvn37+uh7+oLJG424aYNJsE5AmEhlte+Uzh+FgAhlFCrTwD60fq1bt47tKRoI/L1I6YO/YzhBbmzFIgfQeCBm8i5SPNFhEisz4w4L30/GTw1iyrUgXAu+T6eddpoLfnrN6hLhKhEC5SKApg63CiKBMSlGBYZZrsRWrVrlTlOt55EOoHnEEkDABv6eJph0yblICpqgdQKfPKK2SUODibx9+/ZWJXJJMAxt89yRp9E0k23atIksn9VOfFSTSvcp3/kO5701/28sOkGBrBG4U20hIIkcoWQRQHPMmMhfMA3c0ksv7QYMGOADiiCV5KxkWyIEagEBEcpauAtl9AG/Sf7ihC94YAbHRNyxY8e4YiXvf/75532dcF43BrXwF3PQ9iQRUpzYFzIoTzogBldm5mgUaBvSifC5RbStvXr1cmPGjPEvSzPb+QL6JwQqQADNHqlm+P316dPHT2BMI0mzpG4hghrBjGxSreeR85t20iZlEBIsEzw3mH7NLG99ZcnzxFd2sG5gHt9pp538YVxLeMZGjx7ttWDsJAk6Wj18myGgaMgIACRhetaCyw59ZKKIFhgJkua48+PnGSaUlobMfECtLtrXWhC+QsTvD0sPXz8KuxBZH9EM8xvkfsRlG7CyWgqBxkRAhLIx0Z7Gz0WUNoM6AxozZQSfLLSGmMLNHO4P/O8fx5JGn/Mywy8UzQmmNc5Brrzgi4sX21133eUTI5OiZeTIkf6rEV27dtWXI4LAa71sBHhRo5XDLxK/OzIJMIEi0MM09ERFQ6yqLUzwCNQg4wLBb+SOhIChvcKCga9nlH8kEdqQZvLFou3HGkCkOOZxch8yqcN3j9Q9mP5ZR4iW5jmFyARTEmWFA77ZXBOkFjM2E+UkAYj2qchgvzbddFO/yffMw5IkDyU4B79/bm3w/W0EbXDUJJqJbxLhW98kqTcNcKE6lOXDD7LIFEJJxxobARHKxka8kc5nLxFbpnFaNBoI/lcmaHP4SyJRju8MwJjs0G6i/aEMBJToWl52QXOPnYMBlxcbqYQw66GhQZuJOY7ZPS8cDbSGlpalIoA7BylnMH3z0mZywx+CCwmuFiTGRpuUVOw5tGXSesXKmXaSnIUISywT7dq181HnhZ4DJmz45PGcQZTQuPL1n1NPPdV/IIGvXQUFk7NpZysh05jPeeaTWBZ4/s33M9iXtNfDWsuo9ot9tpHfCn/lCJPjQp+ELNYmLhfSVhZDScezRkCEMmuEq9R+1Ay90q5AKNFKlBL0goM5mh1eDGh8kKD/JdoHXs6Ynfj6A9oh/LuK5YXDFI4vFJrJwYMHOz4vN2rUKP+Hb1v4ZVjptat+fSFA4AmmYP7wvYNQQiaTaI+ikMrieYSAoImEGHbo0MGfFo0iaYMghUnIKxHfkEqixO1TknHEhC+0oKFlwha0GnBi2kFDmkRryVgQZ86Nwi7LfSQ7RxtLMAxSKNAIwm2uAaX0CbIYTI4fVXfQoEFRuxPvo99x9y1xIyooBCpEQISyQgDrqTqaGTQepSQTxzxmJiZeNuR8Cw7KtIWvGi8ZXoqlaH3AnpcmGlO0pLwUMcmLTNbTrzL7a2VyU2yCk30vGp4BEzD+nUyqjMixzl8pYumQCtVhwocWj+C+qMhwiJl9iaZQO0mP2fUkLR8sF1eXCUFYuCZIOYLbQHBssrK47RBt3alTJ6/5tf1Jl6RZwh3IIrWD9ZgU85nJSkU5KStFUPXTQKDJlNQSk6MamjB2nN/dotXUqMGoctpXXwgQ6Rk1MMahwOzf/Iogi7wEyxH8N4n0FlksBz3VEQL//21uJmDBiO9ScIFUQo7QiBYTnnlyYuIDWQoZZ3whwp56hcz1UedHi4yvJdrSpEI/GaMgoaWeL+k5VE4I1AsCIpT1cqd1nUJACAgBISAEhIAQyAiBGTJqV80KASEgBISAEBACQkAI1AkCIpR1cqN1mUJACAgBISAEhIAQyAoBEcqskFW7QkAICAEhIASEgBCoEwREKOvkRusyhYAQEAJCQAgIASGQFQIilFkhq3aFgBAQAkJACAgBIVAnCIhQ1smN1mUKASEgBISAEBACQiArBEQos0JW7QoBISAEhIAQEAJCoE4QEKGskxutyxQCQkAICAEhIASEQFYIiFBmhazaFQJCQAgIASEgBIRAnSAgQlknN1qXKQSEgBAQAkJACAiBrBAQocwKWbUrBISAEBACQkAICIE6QUCEsk5utC5TCAgBISAEhIAQEAJZISBCmRWyalcICAEhIASEgBAQAnWCgAhlndxoXaYQEAJCQAgIASEgBLJCQIQyK2TVrhAQAkJACAgBISAE6gQBEco6udFZXebff//tvvvuu9jmR4wY4Z555hn3559/xpYJH6C9iRMnhnc32P7qq6/cpEmTGuzXDiEgBJx7/fXX3XvvvZc6FDzT7777rps8eXKqbX/88cfu4YcfrrjPX3/9tXvrrbccY1NS+e+//5IWVTkhIARiEGgyZVCIHBUmjB3nq7Ro1TKmqnbXOwK//PKL22STTdzMM8/seMmwDAoD+oYbbugYrJ977jk366yzBg/Hru+zzz7uhRdecK+88oqbY445Ysu1bt3aLb/88m7QoEGxZXRACNQrAjwfc889t3/2SsEAQnbaaae5ww47zLVp0yav6vjx4922227rn0ue+dlmmy3veCUbt9xyizv77LNd+/bt3ZVXXll2U0cccYR74okn3JNPPumWWGKJvHaYqJ5++uluzz33dBtttJH74Ycf3LHHHutatmzpevbsmVfWNhiL7rnnHnfGGWe4eeaZx3ansvzwww8dmFYqbdu2bTD+Vtqm6guBUhFoWmoFlRcChsCcc87punTp4u6880732GOPuW222cYO+eXTTz/tfvrpJ7f77rsXJZNffvml++eff3y9n3/+2S8//fTTgoTyr7/+cvxRzoQXSJMmTWxTSyGQCgL8Nn/99dfUCUUqnUu5kbvuustPEF988UVPvnbcccfcGa644go/QYRYDRw4MLc/bmWNNdZw6667btzhvP2c56qrrnLDhw/3Vo/5558/73jSjRgdia8OCR42bJhr0aKFJ5RMgl9++WX3xRdfxBLKiy++2L355ptuzJgxnuhCPhEIKJrQpLLgggu6m2++Oa/4fffd566//vq8feVs3H///a5Vq1blVFUdIZAaAiKUqUFZnYYgcrfeemvBk++8884NyF7BCkUOQiB5uSJG3m644YYGZmr6hmDu7t+/v1/n39577+2aNp3604MUbrbZZrnjtrLddtvZauyS2X2HDh1yx3kJzjvvvLltrQiBShCANDExgkz88ccfbqmllnJrr722O+644yJ/Z9V4Hiu5vqi6Rx55pGvevLk788wz3amnnurefvttr52DPKH5Qz777DN32WWXRVXP27fbbrvlCCXELTgO5BX838YMM8zgTdUHHXSQg4AVku7du+faLlQueAxCidh4M/vss7v111/fk9gJEyZ4ohksz/ptt93mzj//fL/cdddd3VlnneXH0++//95PmIPlf//9dz82ch1hQlzIQrPHHnu4JZdcMthUSeuLLrpoSeVVWAhkgcDUt3oWravNzBHAl+mll14qeB7MzmkKgysDZ1Dox4UXXhjclVsPm6R5yQQJJYPvXnvtlSvPSwuNJYN32IyeKzRlhYEek1vXrl397hlnnLGgRjNYV+tCoBACuGlgGr333nt9sVlmmcWhkcfPj79XX33VMYlabLHF8pqpxvOY14GUNpjMLbvssu6AAw5wuLaYaRjt38EHH+w23njjRGdaeOGFc+UgofhTJxE0gsVkiy22KFYk7zha5pEjR/qJwJprrpk7tvnmm3tCycQBzWVYGINwAUDbetJJJ7kTTjjBawOjNIvPP/+822+//RxuO8cff3y4qdjtrbbaygX7FFtwygFwRNN54IEHFiXdhdrRMSGQNgIilGkj2sjtffPNN/6MaBWYaUfJ4osvHrW7on2Yls8991zvp4SvFpobhBcQL95LLrnEb/PyxW9p9dVXd3369Ik0EUEuTz75ZF+ef2gdIZQMyIV8KNGUct5g3VwjWhECFSBwxx13eDI500wzuXPOOcdtueWWfhKEPx3PGtosTKEXXXRR3lmq9TzmdSKljVVXXdU98MADboEFFnBoDD/55BNPxtDuMQksJow7QS3d1ltvndMMxtUF90svvdQdffTRjolnIUG7aLLTTju5zz//3G9akCAmdPrJdVx33XXeJxtyjJtOsP9cD5YWCOX+++9vTTZY0n+0pgQCLrfccg2Op7EDv/GHHnrInXjiibH+qYy7Tz31lHcRYtIjEQK1goAIZa3ciTL78e233/qaa621lidtZTZTcjXMN5BKXgC8aK655hrfBrN5jq2yyip+u3fv3v7lywBYiBxGdQCTWyGn/3///TeqmvYJgYoRePbZZ30bhx56aJ67yAYbbOAnOgRooI1CY2duH1So1vNY8QUHGoAUoyFs166dw5SKNhbNHgQR0rbLLrsESsevQs5wDTCBnBcLarHnnWWxstYuS9qea665/K4ff/zRMTYwFtGOEc8HH3zQH+e6grLQQgt50sl1Yu3BpSEoBORsuummDm1rUn/QYP2k6/yW0IAynr7xxhvu6quvbqABJ7iRsZTrRRMqEQK1hIAIZS3djTL6YhoRBsXGlmbNmrkddtjBk0p8zNBUBuWRRx7xL6bDDz880t8sWDZq3V4AUce0TwhkiQBBGpizo0y7q622mj81PnQ8f0GzbjWfxyg88PskerqQ4FoCQUEwC+N+QvQxhLBHjx7e1Iu1gIwOaPcglvj8IRAcCBguASZYJbAexPkMQrrjTNr4ayLvv/++GzYleCZKuC8rrLBC3qHbb7/db6OBxMUHQsk+i/LmehhPsJ5E3VMwYAzDP5IAF9xnEIJmMHdzjwkYQtuZlTAxwR+e6HrwQcN6+eWXO5QFCPcGbTnCuJuF5ck3rn9CoEwERCjLBK5WqplGhAGPlxmDIul6GISKObWncQ2YwvCRZODDp8yEPmD2xly277772u6Slvhb8QKIk7R9Q+POo/31hwBmxzgx0yq/zSCZpHy1n8dwnyFYpOIpJKQBMkKJ+8kpp5zitbA8z5j28Y1GG4bmDy0afob4CA4dOtRrafGv5Pk3goN2F0IZJJnB86N9Q/NbSNAK8hclmMLREEcJQVGW85YAHDJMIAQQQTK5Diwl+Lqi6SMzBcEw+GHffffdPncnRLRbt26+HtiAAcFEpBrCbSeczcIXTOkfvyd8w7kH5OQEZ9YhvEwM6Av9P+SQQ1I6o5oRAukhIEKZHpZVaQl/HgaYAQMGuH79+vk0OtYR/HwIoFl55ZVtV2pLorxNg9CpUyfvK8U2Lx1m97xUMA9hdho9erQ/L/ntShECIwqZtZmxS4RAYyLAb5LUOQjBHGGp1vMY7odtYwZGw1ZIzMxsZcjPiO8k/tD4FeLOgumaFGCIZVHg+jF/k2YIjRkaPAJL0IoicYTSH5zyb7311nO4EAQFszPjSNQxglEgfYUEEmaCryFWE/wlIZr4c5JhAkHzeNNNN/kUSFhQEHDCFxNy3LlzZzfffPP5sYxr57rIV4mmFh9Na8dXTPkfYyYkHi0sk/JevXp5twPuBUJQ0CKLLJLyWdWcEKgcARHKyjGsWgvka7RcjCQCRnNAImI0lQzMmI2YkRMRGDYRVdppgmaI9gwKpBbBXBjUQKCtKEeiXtjltKM6QiAtBDA5jh071mvOg/6BtF/N5zHu+iB1mKlLFQgLGrEbb7zRm765Np55BFO25YoFAzR8kDPIK/tNS4s2k218GM2EHOwHUdNEKgeFdiCUBMqESRv+jYUIJYTTJq+0iZWEACoCXOgz4xV9oV9oVzExB1OTMfEmxRr+ouH+0h+0lGhG8adsDIHQ8+EGMDaNOeZ6+igRArWIgAhlLd6VhH0KfnbwmGOO8RoFi14kshoTDQ7e5JIrNBAnPF2u2HnnnVdQc5grGLGCac2c5CMO+11oSMIzcDQmzNxJrxEUM7MF92ldCGSBwMApOSnxceMZQ/Mf9luu1vOYxbXSJkExjCsEx5mPIvsZS6LGkzBxRUPIH8Q0HOhCO2kLZB+TMZNnzN1o9vjDdM6k1lICMdnGWkKfzMfS+oIWkkk4XxgKCwQ4qAENH89iG9elZZZZJudzCkH/7bffio6hWfRFbQqBYgiIUBZDqIaP459IFDWDH2bnoDCwktYEx+533nkn1UGI/G98Ixh/zVKE2Xb4U25R9RnQw8LXMxDIrEQINDYCaIggkQipWqK059V6HrPEAm0eRIoAJDSzH330kSMoiYA8jjEOrLjiinldsHKYiRmHgqmD8gqmuIE5mD/M1qR2QpiY8tEDPsHIV23MT5RgQWT77bf3y+A/xtIoMmllIMgQPHwas5avvvrKa3DBGH94/Fv5PjvBUvi3FpuYZ90/tS8EwgiIUIYRmYa2GfgKpfDAhGNmKBzh4/JUlnPJ+EjGJTKPaw8NRhShZMC3r+rE1bUv8xRLFty2bVtHvjiJEEgLAUyw5DqFQBGBG0cmqvk8pnWtwXYwGTN5JLKZoBbIFIQScgbJJK0NpmP8DYMuLvhS4meKb2KaY06wb8F1fDYJPMKqgQ+kEUrK4G9IrlomswgfZEDLCBkjt+i4ceO8BQd/72JjCxNoTPLgEfcb8CdJ4R9fFUJbiqUJzaolUSe6Hg2rSGUKIKuJ1BEQoUwd0sZrkFQYaB9Jo0Hi8LDwAiSIAIlL4RGuU+o2Lxc0AYWEb23zIo6T1157LbEpqZjJCY2ICGUc0tpfKgK82EmyTQAYmvMjjjgitolaeB5jO1fGATR5+EMbKeSDA4iZjrGKWIYHnnFS7qBFI7IcKZShwRdI6R+aPCLvIf24xQQFk3bQ13XIkCG+f2gnIZW4zHDfSHUEAQ4HKAXbIugRIfI6KyGKu2/fvj4CnXNg8oa4m9YUtwtcmUQqs7oDarcSBEQoK0GvynUZfMgTh6kNkzCDeVAgamj2GCSzyp9GyhAiuwuJRX3GlWEgZ8YdFgZ5HOnxGSL4CCHykmhTTFtRn17LijiH+6bt6R8BtFekZ+H3y0u8mAarFp7HNO/K/7V3FvBWFO8bHxW7sRuxQLEVW7BQMLFb7E5MFMVABExERRQDW9JCRSzs7lYEUbEDu//nO/7e85+zd3fPnrr3eu/zfj73nj27M7Ozz56dfeatISAHsWVRCfLj+bMob0y/+CYSPILPIn6JEDQL2Kk2oWSsiZNWrVr5sSDNWmP18AUlGMfcarDg4BaE5hG3hqQ2IJ2kGeL60GzWQuhDv379vH86mTsYE/kzUz3n5FoJfuSeQCqZqFswZC36pDaFQCkIFDKQUmqqbIMjQKJhBneiKllhAbOPzdAhY5hMEGa5UbJZrc4za7eZe7ltQnhDzQDaIAZXZub0mwHTUnvwAiMytFevXt6HkxxtDL4SIVBNBHh+eJlDjshRSGBbMWkMz2OxPmY9jksLGsn27dt7H0kmcZhfITdHH310QTP4SBKoBBlCzLcajSXrgfOMlisEFaIhZqJoGtI2bdrUaQ6TfDGBEJI4vVOnTgVLJ0LOCLYi/2MSocRnEYsPkecW+FjsfKUeJ0iI6HK0p2AcDfqy9jDfE3EOKa616d3OqU8hkAUBEcosKDXSMgzu+AihrcMUzKoV5F0jTxqmcHI4Yp4qlti4kstj4OOlkyaYozCNFxO0qURkEhVKHWbjpEMK183FH4q8d/hskUuOFB/kwOOlr4jvYgjreFYESDdjUdv8zlg9JU54tvjtIY3heYzrYzn7ICyIpe7BrGwaR5acjBPIH2Imb4gl9SoRgn8gsmiJmSyTaLwcDaEttEBfwqTgTBhon3GF4Je4pRfRvKK9xOyMNrNWsvzyy3tNr2mA085DWRZ+kEUmDSUdq28ERCjrG/Eqn4/ZLH6D5EcjD5tFQzPQ4PtEVHQtV8xhVYpiM3bTmsZdOgM92hB8m4jSxLzNiwsCymoVobnH6jPgkluTVEJoRwkCQJsJsQUPXjgaaA0tfZaDQNSNA+1UFqnP53H48OF+8pjULyaUBKFksSDwjHbr1s03hRbv6aef9il1bN1rUvHgT1pMMA1DuniGbSyK1iGXIs98FssCzz8T5UoFLSkme/wmWYIRP0U0ntHFFtBSRlMc4bfIOAU+FlnNBN4CBcO+ffDBB/4rke5x+XdxE4hbD5xJC5iXK7g9SVtZLnqqVy0ERCirhWQDtsMShERKk9AczSQz6Xbt2sWSsWp3c9CgQY6/cgXtALnuIKZEaWLGYWm1YqlGMIXz4kI7dM899/g+PPPMM46/tm3b1kllUm7/VK95IkBkd7lSX88jkdRRQhTtM6SH9GHFBF9CI5SmncRvFH/DNCFwh4Acnkc0uka00pJvQxKTzLlp56rkGP6GCBNWCCIC6cW3nGwYfGINYRxlTGKSjmDqJ+cmfbblGNmPiZ0JfJJgOeEvKmS6iCOUBDdVIpjBRSgrQVB1q4GACGU1UGwkbTBI19cqDnbJvHQws6cJJvik/JGYqVkflwGbnHHRFSrS2uUY2lHW1iV1CSQArUM0L16xNnRcCNQCgVo/jzw3tm51pf0PfazxuTZNY7F20cixNKMJmk4mecUCmKx80mcxIptUL9wfWk7wk4QcLr744v4PEzcBRqFwzfhrQz7NrI6pHY0qhNtIJnVYfQdyWqrgUxoKk2KWmaxUTHNaaTuqLwQqQWCanCkn1pYz4a23fbut29Z1gK7khKrbNBBgFs9SbPg5sqJGmmAuQnPKAM6AXo4w2BPpLbJYDnqqIwRqgwD+kvhJMhHEhM0zzuSwXIH0EWSI72S5bitEgzNWhAQwS38Y0wgIJA2bRAgIgdIREKEsHTPVEAJCQAgIASEgBISAEAgQmDbY1qYQEAJCQAgIASEgBISAECgZARHKkiFTBSEgBISAEBACQkAICIEQARHKEA1tCwEhIASEgBAQAkJACJSMgAhlyZCpghAQAkJACAgBISAEhECIgAhliIa2hYAQEAJCQAgIASEgBEpGQISyZMhUQQgIASEgBISAEBACQiBEoMXPf4Rf624XO163hvYIASEgBISAEBACQkAINCcEpKFsTndb1yoEhIAQEAJCQAgIgRogIEJZA1DVpBAQAkJACAgBISAEmhMCIpTN6W7rWoWAEBACQkAICAEhUAMERChrAKqaFAJCQAgIASEgBIRAc0JAhLI53W1dqxAQAkJACAgBISAEaoCACGUNQFWTQkAICAEhIASEgBBoTgiIUDanu61rFQJCQAgIASEgBIRADRAQoawBqGpSCAgBISAEhIAQEALNCQERyuZ0t2twrX/++ad795133JRPP63T+sQPP3RvvP56nf3FdnzzzTfuiy++KFbMffbZZ+6rr74qWk4FhIAQKA+Bn376yf3xR5HVL8pruk6tjyZNcmPuvsu99+67dY5VY8fUqVPdb7/9Vo2m8m2Az3PPPuOefebp/D5tCIHmikCL5nrhuu7qIPD111+7nXfY1nXavLPrd8FFBY2ec9YZ7vnnnnXPv/y6a9Ei+0/tlBO7u2eefso98cwLbtZZZy1oM/yyTZdObqmll3G33D4i3K1tIdAsEPj1119dzx4nuw07dHRbb7td/pq//fZb98Lzz+W/Z9lYZ9316jxrTOo6bbyh69BxY3fJwMsLmjnu6CPd4kss4Y457viC/fbl5Zdecv37nusOPPhQ13GjjW136ufjj413/c7r7TbaeFN30YCBqWVLPdi3T293y003uEMPP9IdfOjhpVZPLP/mG6+7A/fbx80551xu7EOPuhlnnDGxbNwBJt3vv/9e3KGS9vEbmGGGGUqqo8JCoNoIZH/LV/vMaq8mCPAygYTVanD5cMIEN3Hih/m+f//dd377iy8+dw8/9GB+Pxvf5fqCsD8klC1bzuNWXmUVf8z+TZkyxf2V03YiP/zwg//8ePLkOi85f+B//37//Xf3R+6PciaLLLqom2aaaeyrPoVAVRD4Lvc7n3322d10001Xlfaq0cjrr73qHn/sUffA2Pvc22+/5bqfcJKbdtpp3Qc5gnL8sUeVdIobbxnm2q24YmydP/+sq6F88onHclaEz/Plb77xBse+iwZc5qaffvrcMzw1Z514zX3y8cf5MsU2uu6wo7vyisv8NWGlaNmyZbEqmY933X5HTyhHDh/mSS44ZRW0kFhi4mTZ5dq4ZZZdLqdVfceNGjHcdd5yq7hifh9jYHSCfMfoke7aIVcl1sl64NZho1ybtm2zFlc5IVATBEQoawJr/TbKoH3FZZe6Rx5+0P3444+evKG523yLzm7f/Q+sKsG6/tohbvSouhrBl1960fEXJyccd3TB7g027OAuvfzK/D6IYefNNsp/t41ddvx/rYvti34yu9+q82b53Y88/rSba6658t+1IQTKRYDJ09WDB/nf9SeffOxmmWWWHOlayW2/485ui85dEptFK3/n6FEO7RWTr8UWW9wtv0I7t+XW27h111s/sV6pB9ZYs7276dbh7sTux7ibbrjeE8m+5/+/laDjRpvktH2bpDZ7z913VsVc+9qrr+SI4Hj3zz//JJ7vxReed9ddMyTxOAcgepjYjzzsYDfPPPOmlt1rn25uzfZr+TIQ/i027ZhanoOff/6ZW2fNVRPHxNlmm92Ne+SxgnYOPWh/9+orLxfsi/ty3rlnO/6SpP1aa7vBQ66LPbzLbnu4RRddLPZYlp0LLLhglmIqIwRqioAIZU3hrX3j+BsdsO/e7vvvv/Mnm2222RymsHdyGgv+8O+58JKBbuaZZ65KZ3bYaRe31jrr5tua+v33rk/vsxwzdchrKFcNutxNmPCB692nn5s20OzMP//8YTH/Etl9z73z+x4a90DOP3KK22nnXd30KWac2265yV/XNttt7+uiPYpqAPKNakMIlIAAvr+HH3Kg++67f7Xsc8/d0m/jK8ffp5984vY7oPD3TvM3XH+du/jC/u6vv/7yZ0Nb9+GHE/zfmHvucocdcZTXkJXQldSirZdayt146zDHpO2x8Y+6Qw7cz2sqqdR2+eXdtl23d5hV8R1crk0bT9buGDXSa9J4Vuhbffn/MfEd/+jDqddjB9FuFpPNOm1eUIRxj3Fu8SVaFezP+oXx8u+//04sDoEv1aRNY1hcIKT2m4g7AROUVVdbPe5QnX3geNONQ3O/v4PcvPOmk+46lbVDCNQQARHKGoJb66aZyR9z5GGeTC69zLLu7N7n+ZcI+3lpnN+vj3vqySfcsNtudXt327cq3VlxpZUcfyaff/65J5StWi3pOnfZ0nb7zxHDbvOEcvPcYBmavAsK5b5w7MSTe+R3Y7KDUB7T/YRUgjj89lvdYosvUVA334g2hECZCKBlQ0MGmYRE9D6vv1tggQVyz9n37rzeZ7t7x9ztBlx8gdtk083cEq1a5c9CcNoF/c/z3zt32codcdQxDhcMyOdVV17hRo0c7i679JJcm2vlyMNq+XqVbsw000ze1NzvvHPdllttkyONv+ebxFwLMZ4y5VM3fNRd7qEHH3ADB1zs7r7rDnf5lVfny0F8ay1b5MaHDTvWtUSE5x122y2+f2C30y67hYfqbKMxjgrm56E33Rrdnen7lptv6r78MjkY8Ny+57voZPi1V1/15m6uK4nccf+7bJ6uKbYOvvTiC+6eu+503U88OVEJ0L9vH2+Nwgzf47TTrao+hUCDIyBC2eC3oPwOjB45wmGKQzPXJzfYLbPssr4xXg477ryLnxlfctH5Oa3JtQ7zUKW+hXvsulOBvyInsxk95vYO661dcDGmeB75XwAAQABJREFUNd2kQ10z34ILLeRuGz6qoHz0S59zzkocVCmbNuOPtqXvQiArAm++8Yb75puvHdr+gVcMdhA2ZM4558yRy34O0y2m0ycef6yAUD780Dhfru3yK7g+/c732/xbeJFF3BlnneM++miSD5ahXDUIJf18cNxYd/iRR/tJmZELXEjG3P+gm32OOVy/XDAKY8Q+++7v0GYu2bq1e/+999x9997jieYlA69whxx2RP4a6e8DY+93v/z8c96XmeAcTPjI6mus6Umy/1LiP8YlMEyTmWb615LCZ7Gyae3U17FzzznTvfXmG+7Y7ifmMN4v9bRp7gBU5Pjpp57iJk/+yL2acyG45NLL3UILL1zQ5pNPPO7JJFh2y91TiRBoTAiIUDamu1FiXzBnIzvvunueTIZNMMBh8oJIVkomaXfZ3Oy/mMmHQAEEX7M0mXfe+dIO+2NoUSRCoL4RePedt93CCy/iVll1tQKiRT/w8cMfEkKJJj2Ur7780n9dJmctiBO0Z0RfW7m4MqXsI4sCfpqYavtdcLH38aQ+AXnz5dxKIJMEfSy11NJeW8oxxgFIMeZhJoEQmGhE9blnn+m+/fYbinsh4OT0007x2+fmtLVoXSsRMkMkmbQhZ8iED97Pmccf8dvRfwsttHCd8Q7Sv8mmnfz9QYNXjjBmMdGNyoILLuQ+/+yzOgFZY++/z5PJ+edfwO26+x7RavnvuPsQiDjHHOlkmnsz5Pob3bFHHe7x2X2XHd0FFw9wq62+hm8LjWT/nBYa2a7rDn6i4r/onxBoJAiIUDaSG1FON/B/QsyXCJPb+++9y1vDO6vPN998VY2URMtSTDpt3MEXuSY3MFYq9z7wsNcSJbWzSYf1kg5pvxAoGwGijflLkk8//cQfWqLVkgVFNtt8Czcs54bx9FNPevN4qGHD9PxkTqOJUK4acsXgIa7HScf7YJh9997DB7phkiVCGlcY/PaWXLK1G3DZIB95TeAKpATTLBrUvXbfxZNKTOBHHn1svksnnnKq+yGXsxFSSbAfhJSgEWSFdvGR4PnKGTYI4KF/aTJyxDDHX5xgCj+15xkFhyCUkC/SFXXbK91UXlAx+IKvN4FTUYmmQ+M4lpkrBg7wRUlDlDbRXjAXMPPQ+CeizcZ+5/5dO/Qm16vnqQ6f24MP2Dfn0nNqzvy/qyOSnjEf39cDcumYJEKgsSEgQtnY7kjG/mAe+WjSRF96hhlm9IE5RJeGgkbkgosG+Hxx4f5Kt3H+v/x/g2m0LdNs7LbzDtFD/jtBCUR5Z5F/coN2mlk7KZVHlrZVRgiUg8C4B8Z6jSAmR3L/hULE8dq5gDUI5R457dKee3fL+fgu7n0oyYGIybtVjoSuv8GGYbWytyGsmOTRyN2cC9LYO0cQCdCBXBGcQl/6X3iJT3fESbpu3cVrMe+5f5w/flEuWK97Lr3QWmuvU9AH84XG1A2hRGu3867lkbSChiNfiHqmj6G89OKLueCiR1zcMYJRRgy/PSxeZ5vAo9uGj66znx37d9vTa2aJjI+TVksWThAog4m5+zFH1inO+IuWF+nb5xzvr16nUMyOM8/pk8vZmz6hQMN8bt/+Dr/4gQMucr3P7uUzDTz6yEO+xeOOP8n79MY0r11CoEEREKFsUPjLPzmO3kRuMjPu1bOHT46LNgIzHRqUV15+yTuLk3QXbWGlZqqwp0R2Y5oi8hX/sKgQFBTN8/ZNzsxFYAB1s0pWR/as7amcEKgEgUkTJ7qze/0bBEFWgigBwWQ56KprPMEjjU80hcxmnbZwZ597ntcWVtKPsC7nJKANEvJjLprYAkPQXnKMPxPzd7bvkN3bR8STLyuT9ImfZlqgXVK9cD9jFZHKodw49HpPKDfssFGOkO8THvLuAsUIJUQaUhknLVpMnyPbLvF4XJ1ZZ53NYWIPhdRsloOzVasl64x1jMv4rSKtWy8VVk31CS8omPtCFoGll1nGa6FJ74Sst/4Gboeddvbb+icEGhsCIpSN7Y5k7M+X//PXYvAiFyOO+axKYfLB++97rSW+XqwSMeCyK+xQ1T453+577lXQnpm8b8ppSkLBXMMqGFlknXXXz0VTLlBQ9K47R/uX5uZbdCnYH0doCwroixCoAgKYkY849CCfUQEixPMWFbTpPU46wY29/15/CJJHbkEmeGizSECOVh0TKhrOakq4Ys1tt9zsJ5TR9n/55edcntoffB+jx9AUbrNd1+ju2O+kwYGcFvMJjK38H9vJAgwj77ynoNdohJkwQO4uG3RVwTG+gD+p1KL5dusUzLAD/0lcK8znFOx/zgVMxUW4Z2hORYRATREQoawpvLVrPExkS1RpSCY561JLL+1OyaWUIOkxUamYaEJtRTV6ducdo+q8uJi5ozU96fjjCk6BY39W6bZf3ehFzOwIGh6JEKhPBCz1DtG3aJyIjIYsRgWicf99Y/zL/rQzzvILC5CBAfLFalFnnNYj9znOaznP6l1e4Ej0nOH3a4dc7c3pBOrgf5ckccfoZ1ZCaVaGOXJR5I1RyCFqGSbC/rHiD6QfM3ZU5ptv/jqBPtEyfH/n7bfdrTff6Me4U079V1sdlmPCcN01V/td0by8Ybks25/lAoGYxOAXT5J3NML4xR528AE+5ZNIZRYUVaY+ERChrE+0q3guHL15qWF6SoqYxg8JQStBwE6SKajcbuHDSfRjKLbSRTRZ8m+//etvFJa17YceHOfGjb3fvsZ+/vzzT34/GqA02SDn12Y+YGnldEwIZEGA54sAElw8iPa9LJe7MQy2sTZw8xg98l/fvB6nneG6BEvw8UyQs5IJ3XFHH+EwX57U47TUHKvWbtZPIqJJEQb5gKz2+F/Qyhe5PLG77tQ15++5kU9zxPKRpA/yxCiXtssWAoi6qKSdlxyxyJyNdEUq/A7Jv5skELKokL+T6Pdigj8jpBQ84yLCb7phqHftWWnlVfLR2cXajDuOEoBJOXkxcWUyTSjBV6xIJlIZh5r2NTQCIpQNfQfKPD8vp0UWWdRH/a3Qrl1sK+Y0zkF7ccQWLHPnEUcdm2jyHvvQvxpFazrN5I2/Z5zWxOqGn8XKkS5FhDJETNvlIgBxOLH7sX61KTRYLJu3UExaGdrHxcSet/aRIBc7vwW/0C6pfiwdjB2v5JM1sJG9u+3n09ugccQqcfaZp3siS6Js08x1P+Fkt2PXrd1luejunr3OynRaXGseyKXJwXxPECCy9NLLZKpb34W2y63b3X6twkAj+jB40GXul19+cUcfe3y+S1Onfu9N91h0ismUKVPyQYJomjftuIHrlFvetsuWW+d811fNmaVfzyWuv/h/CzWcWqy52OMs93nJRRf46HsK8Bu5OJeP0rTB/Ab322dPkcpY9LSzoREQoWzoO1DB+dfMaSBJI4F24qBDDqvjHP5IzsyGoFlZdLHFKjhTfNWnnnzc/fTTjwUHSQhNlCkrg4RiOTPDfbZNYuVu+9XVGnw0aZI76vBDci+Bn70mlvJzzTV3LuHyVHdyj55u006bWxP5T84tEQLVQODM00/zL3aCz3iRL77EEonNcgxXD4gXEyRL5RVWYD8C2WudS8VTLSHBOj52+PSFVohrrh7sl1Uk7YwF63BOgolIvUPk+Xq5iPONN9k0tSvkzoQ88dyxctCcc87ly6+40sqp9ap9kLRHWWTzHMmLk+uvHeKx33f/f8caAoBuHHqdX5o2S+YJJhP4hjN5wN2HFW1uv/Vm/4evLPcejTZphNqtWHp6Jfpz0QX9PGlFAcCYyF/ob8vKTFdefa33j0dTSc5KvkuEQGNAoEVj6IT6UB4CELExOfMZPlM9e5zsTV28rJDHHxvvLjy/r99ed726K9X4AxX+w6/RfBvDpoiCZIm5OInz4yQykz8T/JAYXK+68vLcC6CFHzCPPeoIf5hl1fArwvREEnVy5tVC+2p90WfzROCC/n09aeDqIZOsMJMm+LOttfa6fq3q3mf18r/J8LnDhEkScYSgnrmqaC427aRNytCAXnzhvytk4V8dl3SbsePBXAokfKwx0W+/406+b/iLslTrC88/60jhg6B5ZYlTfJvXW39Dn36HVYSyaPV8AxX8m/zRR+6EXB+ZKLLCD7Lccm0qaPH/q7J2NuMRbjS3DhuZORMG131s9xNyms7u3o2A5Tg//nhyvuHPcppMsnCUGjDIKkSM39ts29Udlgv6Io9wnBD5TRT/oQftn1sRbde4ItonBBoEARHKBoG9Oidt2bJlbgWMY30eNPyyyFO28iqr+uURJ+X8GxFeXpi7qikb5TQaLO2G3xhLuN2QW9oRnyLW3zXB3HbqKSd6rc0Wnbf0mg0Gy/lzayInCS+zkcOHec0JprUllmjltQfhiwtN0NCbb/N+bawCQs6/7bbfwW273fYlD+BJ/dD+5o0APr38pk123mFb2yz4JJ3MmLH/WgE4AMnAr3jixA+9jxuBFKTrmvLpp/k1olmB54STehS0U8kXfAUJ1CDhOHkwyR0JSUR7xcovl15+ZR3LBefDD/Sqa67PkcO93Fm9evocmUSKQ7DwQWRSh+8eqXvIrGCEGh9BntOdckQmbnJYybXE1cVP8cvcNeGDPf30M7ittt62aonhcRXC/N2/77nuuFyuyRty40pcsFVcv9j36iuv+PyfliKIsZbgQ8YlXHPoK8GSWYll2+WXd2MfGp9pskHZ+8Y97Il2Uv+0XwjUNwIilPWNeJXPh/YBExbaDyKsMX8hs802u4/4PP3Ms6ueYgJT9PhHH3ajRgz3DugQRTSM4cDJS5QXDy+2Z55+ygcOsUII5JJUHCaQUvp8/71jPCEmJQbaD9bGJSVRaO6xOmh3rr52qLvrjtEOsx4amsGDLvekldk955Hp29DSZ6kIWBSz1WNyFCfR/ZAuEoufn4v2ZqJD8MrXX3/lq5IGC3MxGvVaaCctovjwQw70pKZDx41d3/MvTH0OMJ+ifYVUEpncoeNGuTXGV3cnnXKan5guu9xyBZeNyRmzMbLr7nsWHCvlC6b5Bx5+LJNlgef/wUcfL9o85uZogGC0EtH23DPGLxOSzI8Ydptfu/y9d9/1SeAZx+JybJKqjeTqk3MJ6pnAc48RfNkJsiLRPemlhlx1ZU7Le4sblQvSIt0ZxPKAgw5JdTu6Y9RI755g/Sr1k6UdWU1HIgQaEoFpfvo9frT87P23fb8WXLo65oWGvMjmcG4GykkTJ3qfygUWWNC1ads2VjNRCRaXXnKRJ3GW1BdT85a5wXL3PfbypDau7bfefNMPqmPuvst99923vghaGpa2Y/aOaajrNl28/xEvXZL24t+F9jWUjuv/62T/yONPhbt9Spb7xtzjrh48yE2Y8IE/dvuIO1z0ZVhQSV+EQD0g8O2333oCstDCC+fSvsxT9TOSSeGg/bt5Tf7ou+/1GkOIyRs5F5iTcwQnGrndYb21/WSNlXJCgUixOk00yXhYhu0jDzvYu7iQoL3/hRcXHMZnmv5cnouChwTiCkN5tLF77LV3Qdm0L7i6nN+vjzv+xFPqJDZPq4ePNos4VEMuzK0gZH6lkEgiqj/OpYwioCcU3Bz23Lub2//Ag70lJjxGyp/BuYkuvpZoeyGoe+2zrzeTh+UIwLl2SN1clmGZLNtL5wKkho9OThWVpQ2VEQKVIiANZaUINpL6mJ/QVPJXSyG/G9qPjTbexAfFoE1ME0wz/B13/Ik+eOjO0aNyGsnx+SpoA8448xzXIvcSIrUK2s5ShJdml622dp1zaVoITvrg/fdEJksBUGVrhsDcc8+dW01q7pq1jwkYMyvuHjz/yLZdt/d/pZx0mWWXLZqDEQ3g97lVrjDzx0WGMzmM5sItpQ/RsnY90f1J35mM7rzr7kmHS9qPxtEEP8Z2OXeCSTk3BtY0JxAJVwLSAuHLGCXtVo+0bliH8Gtl+UqS3eMjGZWuPiJ97ejukr/PPPMsJddRBSFQbQSkoaw2ok24PZzz0YSGATTlXC6mM4honFkpqb2JH37oIyileUxCSPuFQDoC+FdCgMKI7/QahUchlQScYCovJriyoPnEBzJqbUirO3XqVMcyrdRrSm4rmMJLwSENIx0TAo0VARHKxnpn1C8hIASEgBAQAkJACPxHEJj2P9JPdVMICAEhIASEgBAQAkKgkSIgQtlIb4y6JQSEgBAQAkJACAiB/woCLWaZPr2rxY6n19ZRISAEhIAQEAJCQAgIgaaOgDSUTf0O6/qEgBAQAkJACAgBIVBjBEQoawywmhcCQkAICAEhIASEQFNHQISyqd9hXZ8QEAJCQAgIASEgBGqMgAhljQFW80JACAgBISAEhIAQaOoIiFA29Tus6xMCQkAICAEhIASEQI0REKGsMcBqXggIASEgBISAEBACTR0BEcqmfod1fUJACAgBISAEhIAQqDECIpQ1BljNCwEhIASEgBAQAkKgqSMgQtnU77CuTwgIASEgBISAEBACNUZAhLLGAKt5ISAEhIAQEAJCQAg0dQREKJv6Hdb1CQEhIASEgBAQAkKgxgiIUNYYYDUvBISAEBACQkAICIGmjoAIZVO/w/V8fffdd5975JFHEs/67rvvus8++yzxOAe++eYb98UXX6SW4SDtfPXVV0XLqYAQaE4IfPrpp27ChAnun3/+yV/2d9995/f9/vvv+X3lbkyaNMk99dRT5VZPrEe7d911l2OMqLaMHz/evfPOOwWYVPscv/76q3vzzTddNTCudt/UnhCoDwSmyQ06/z/qBGec8Nbb/lvrtm2Cvdps7gi8/vrr7rTTTnP9+/d3yyyzTAEcDKRrrLGGm2eeedzDDz9ccMy+rLbaaq5Nmzbu5ptvtl11Pvfdd1//wnrhhRfcrLPOWue47VhppZV8H0aMGGG79CkEmj0C2267rSdPzz//vJttttk8HldeeaW76KKL3Lnnnuu23377ijDadNNN3ccff+xGjhzpll9++YraCivfcMMNrnfv3o72Bw4cGB4quv3555+7nj17usMPP9ytvPLKBeXfe+89ByaMJRDLmWeeueB4sS9jxoxxU6ZMcfvvv39q0eOOO85R9qyzznI777xzalk7+OGHHzr6V6l07NjRzTDDDJU2o/pCoCIEWlRUW5WbHQJoIN9++2239957u+uuu84tt9xyftb/xhtv+P2QSggjxBNZdNFF3VxzzVWAU9wchgH7zz//9OV++OEH/zl58uRUQsm5+KOcCeebZppp7Ks+hYAQCBCIe/aCw5k2mfCdffbZ7vbbb3e9evXKVCdLoR133NFddtll7tFHH/VWipYtW2ap5svcdtttniw+/fTT7vTTT3e0ZXLppZe6v//+280555x+zLL9SZ9Metdaay1/+Ntvv/VE9aeffnKQ1h49eiRVc4cccoi799573dChQzMTSkj5VVddldhm1gOjRo1ybdu2zVpc5YRATRAQoawJrPXTKIMcg1gW6datm9tkk02yFE0tc/zxx7vZZ5/dXXzxxW6fffZxV199tVtyySULBnC0k6ahRJO59dZbp7YJKdxoo43qlNluu+3q7IvuYHa/2Wab5XfzQokS2PxBbQiBEhB47rnn3PDhw/3kCHPsEkss4VZYYQW3ww475AlHXHPPPvus4wXPpAoN1OKLL+7atWvnttlmG7f++uvHVWlU+w466CD30UcfJfbpl19+8ccgQzxvabLgggvmSRwa0yFDhqQVd9NOO637448/3MEHH+zmnXfe1LKMaUb8jjrqKI8z2kEsKExwzzjjDH8PHnjgAd8OWtVLLrkktU0O7rbbbvl25557bnf99dd7zSdEEdeBPn36uPPPP9+99dZbddqCsL///vtu9913r6MxBIvzzjuvTh127LHHHm6xxRaLPZZlJ21LhEBDIyBC2dB3oILzQ8R46WWRzTffPEuxTGUY7OeYYw535pln+oH/nnvu8fXat2/v9txzT7+NuZqBGM3A119/nW+XAZcXEvvQQKBN5CWCxtOEFwAay1133bXOoGxl+Lzpppu8+cpMeNNNN12qRjOsq20hkIYALhmYh01rzm/rgw8+8H/83tFUQQKigtaeSdRff/3lD00//fTedxGfRvwDIT6HHnpotFqj+s5EFVKXJC1atHCLLLKIP5xWjgLhcQidTTST2rb9r732mm0mfkbHNCagSy21lDvwwAPdjz/+6MkfZmjGHCbeG2ywQWJb4YH5558//OonA2hAGdvuvPNOb1KHTEKmzaXAKtj3qB8o/WndurUVq/PZpUsXt/rqq9fZH7cDHCG3EP9ipDuuvvYJgVohIEJZK2TroV1MOLfcckvimRjEGEh5udkLILFwiQeYxf/8889eO8lLE4EgrrLKKn7bAm8wE6233np+n/3DZM4+tJtobHhBhaYktI4QyhNOOCGVIN56661eaxTWtXPoUwiUiwBkAE0Xwu/8gAMO8M/PJ5984vr27evGjh3rff0gAWiwTAj6MA3UVltt5Y455hjv8kG9K664wms70ZChVcOs2hjk+++/9/6KkONWrVr5LjFRq4VsueWWsZaI8FyMZ1g/wA7s02SWWWapc3jFFVd0o0eP9n7cTHzRtGKxwALCxLWYME7GmdpN03rjjTf6fpnWkwl9FhebrGSWiTik9eSTT0709URD+uCDD/rJDuZ9iRBoLAiIUDaWO1FGPxggV1111cSa+CNBJvFpjDMpJ1bMeMCc1NFoIPhX8hfKTDPN5B3ibR/aHbSbDLDzzTef7Y795KWe5kBvWqDYytopBMpEgBc6gosIZlMTyAaEcJ111vHaLwI8CPYwGTdunN/ELI5J1IR655xzjsNsDgGhXDUIJZr+UANo58v6XBDMRj/xE0SDGjVHo5199dVXvZXB2s76CbGbccYZC4oz8WQSnCb2vPNZrGzYzpdffunQam688cYO8vfiiy+6J598Mj8R2GWXXcLiidtMHnDrCeWhhx7ykwD8syF6tRI0qaeccoonwa+88oq7/PLL3cILL1xwuscff9yTSbC08beggL4IgQZEQISyAcGv5amnTp3qrsuZ35AjjjjCf1byj1Q+aAQZ9Ex4sYYvRqIrzfzM4I7/GRoctDomzOzxRQv32bHo5x133BHdpe9CoOYILLTQQt4/GA1kVNBGQRDxpUO7FwqkBll22WXD3fltAtgglFYuf6DMDXwFzd0kaxO//fabw3yLOwokEusA/n5xYwSpuzhWjtx///3+OY+ri7tLkkkb30cEP8Sk9GOQrBBjiC8uM/irQgi7d+/uxyUsHBtuuKH3XeWemYsCpGzNNdcsILyQfcY3JsCh4AsLycMHluAZ00jzG0Fwb8ii+QR3fM3ThN8WGlAi1cGHwKIBAwb4zBnU4zpxw0Dw4+WaJEKgMSEgQtmY7kYV+3Lttdc6oqWJ/CMNR6VCbjsGt1CYJYeEEqLIQIegYYBQIpgQGUzNNO53ZviHv5X5JMUVj5rS48ponxAoFQEjHnH1MF/jsoFEfd622GILT0rQjEE2Qw0bWvzHHnvM16NcNYSUPWYdCNsj+AV3lzgxUz5EEhM0Pp08t2lCsEjnzp3TiuSPQSQhZ2mC9u2www5LK+KGDRvm/+IKYQoPNcdcy6mnnupdZHCjgShD9NDgcR+YBOO/SHQ6FpQnnnjCTwgYz4yUcW8glFGtKmPn3Xff7etwXrS41MHszNh0zTXXxHWxzj7GYfweiwn+m7gccD343NJntvEnJ60S10b6o8buh1vsOnW8aSIgQtkE7yvaExu8jjzyyKpcIdoVM4nh54M5JiqYCs1caMfQMqIRuPDCC12cxsfKxX0S0JNmvrOAibi62icEqoEAZmW0SxCTl19+2ZuI+U0SoIFpOxR8I9ddd11vakW7RBQyEd6QUMgARIuJFVqzagiEKc7saXko486xwAILOMy/O+20U1GXE6uPbyXBLVmEwKVihNLaWXvttT1e9p1PTNVoJuOOEYxCqqI4wRcb30kCcjBR47OK6RpLDWKZH3Bj4PrR0jL5xS2IiQFJyZEooSSjxeDBgz2BZYKMxhbtLpgwtkL0QqEsYx5klQAhk2i7tj/uk3ySEGK0sOQO7dWrl8eF60JOOukkx32UCIHGhoAIZWO7I1XoD7N0NBe88PApqoagXTSNIME4ccIsvFOnTv4QWklyslGHNCrM/ksllNVIcxTXT+0TAlkRwGxqvpHU4WXPCz5KJDiGyRKNFdorSAe5GkNBM0nQTqma+rCNSrfRSJoVodK2Kq2PdYNI5VDADUKJzzdpyULBXSCJUFIOkgVx5x5g+sZCQ3Afginb8ttCNNG6ci4II/stEwXaTL4T8ENkP8InPrBMYNGumtUEX3AsMeH9NOJK+yGh9A2V+A9yzOIR9Ncm6vieZ02aXuLpVFwIVIyACGXFEDauBhgYLUoTX5z6FLSYZophxQgIJWktyBOJrxc+TlkEbUN0Bo72gZd5lJSaySpLuyojBEpFAA0jQW0ErpCxgFRd+LFhBYjmgEVzCQHld4/we4VYoKFEA4a5FVKC1ikkIaX2qb7Lk08zazSxuQPUdx/tfLgZHHvssT5KP1yNCyIaR0bJDRoKkwH+IKb4WYbCfceVACJpAtljGUrGp2gAjZWp5JOVx9Bqm88pZJcJfVyEeyXnUV0hUA0ERCirgWIjagOTC2Y6nMirpZ1Muzz8xfDxQfD5QYuAhFpMfI8glJiZskicGY/VMxBLy5KlHZURApUicOKJJ+abQOuOthJ3D1LboN0K/S0hIkykeNnjq4jfIdotXDdI80J6K+pDzijb2AWNKwKZjiNjjbX/aBnRftJv8kVOnDjRpzMjkIZj3Ecmv6FYOczf+DHGpQ4i+Ia1uiGapr3E/YdI+2hicQgmY6MJbRZb4MHK2iep19Dg0l8m5viK4naB9hUrlEilIaXPxoKACGVjuRNV6AdRmZiWkbiozSqcok4TDKyk/wlTABGpGfo+MsvGdMMgG+63xnjJ4syfJhZ8gAYoTTp27OiDDdLK6JgQKAcBfNr4w6eStbGxBBihhFRYEBoBI+ShNIGIoKWHoPFcYr4kQjttnXqr25CfEDAIMoQ4KgTVkOORa4mLcq6Fti7ah7jv3AcSnpO2iBRPEHcIJRMDSCaTATTF3J8wMAhfSpZo5P6QvSJOyFCB3ySuC0wo8BX96quvfLtRDDCnh0J/SiGUBFbht8qYTkCRLc/I7w0/U5HKEF1tNxYERCgby52oQj8GDRrkX3YMXhCr+hACEULtxUsvveQd1zE9hWlVSL2BqShcEcf6Rx20m1mkWDk0AUSvSoRAOQhASCyXKu4VpokK27LMBuEa8qS5scCOJEJi+5lUoRFjotUYhBVfSPllOSDDPkFmMNkz6Qt9Gi3IJEzfQ9AePn7hvrCt+tgmIpuMFIY1iyQgtkoNWmPybxI0w/3DzxXNn0XFm39kXF8J9EHMTI52EsEaFBV8LsPo+ayTB6K4L7jgAq/Rpk1+I5BgM7OTCo6AMJHKKOL63hgQEKFsDHehCn3A+dw0JPWlnaTbONAjEFhexj179vSDH87/YVAC0a9JQn+ZcUcFDQB+apjP8V1DyANH5CbniS69xvFoHjn2SYRAVgTQNOFWgS8yJsW4wDDLlUgQmgnkAZKF9pIJUtxvk/0IJHXppZe2qlX7xJxLABw5Y0sRfA4x8cbltMRXlGcT/2f8lZNSkOFHSGQyk1oIUNT/sJT+JJWlL8XE0vjYxBWiz5hhwTL4I2LFIeCFxPT4xXJdFrCTRChxucHcDTE1VyJIHRLnG05AZPj7KNZvjqPV7Nevn7fiQEDBnb/Q35boclLCcX2cHz95vkuEQGNAYNrG0An1oXIEGMQhXSuttJLr0KFD5Q1maIE8kRBHI5WsusEADkG0BMAZmvGaEcrbH75pI0eO9ClReEkyYNoxXgasWEGkLS8wAh/sGJ9xWpYsfVAZIQACkD0zV6NlMtJg6JC6xdJnhatPQT5t0sRvk1RZoWDCREuPoOE0ghOWKXcbotq7d2+fjggtYqmJ06OBJtYPyDETOggTJvs4cm1l0QiSUBxihg80y1NWQzCrs1gC6XpsiVWCpOKEXJJoJNu3b+99JJl4YjLm+o4++uj8H/cVAk3gHwSOY+SmRJgEg2VUTDtp/t244FgaH85rx6P1SvluvpmknEJLToBjSCatLdyH+A0y3sVlG7By+hQC9Y1Ai/o+oc5XfQTIz8aKDki18k6m9dK0hbzIGNQwI+GjhD8V5nYG/2I+kXHtM0iT0JgIS8xszMYHDhxYoM1BE0RwD/5PkE4c30mDwktHEd9xqGpfqQhAGgguQyPFb5nfFZMYfPHQaCGQR0yPoeDfSxkIGJolAimohwkWYoPQlhGjsG4520zg8HGkfYTJFRpETLEEpGQRSBeWhWgQCv21FVt4ppm8WZBOUrto/ZgMnnnmmd7/D7OyafOS6hTbjx8nfcGdgOsjx2ZSYngj+maaJ6jFNI5GGKPng7AiZvJmqUnqhYL2lWAY/MTN3E1QDJpg8OY3gf8lOMb5iIdtpW2TqB6taZbJBmWZ0Msik4aojtU3AiKU9Y14Dc7H4EY6Evyg8GGqtZhGkpclLzX+0MCwrjjO42h5jHSGfUHbGE1GziDMDJ8XIzN+zNu8BCCoe+21V+wMnQGXxO0E+RDVjkM9Glo0E127dvUvHA20IfLaLgUB/HBvueUWb/rmpc3khj+ENECYszETR/0rMYcyISIQhIkObigEbSBow/h9khEhC2HwlYr84zmETKLxhOgwscN3GdIVJZT4CSJ2Hda0pTiypQTZz0QRywOaTogLZuzo82QJw3mmQ6KJxgy3ASLZwYjxgOsOhTGKZz6LXyEauqi2N2zLtnFDwBeUMclILL6cjEvFhAkAWkHGHcsmEdZhbEEwM9MfCK6ZmSHdEE2SpVs5yqLdLUWYHNP/cmWeeeaRtrJc8FSvagiIUFYNyoZrCBMbf/UlpNZAE8OLBhMXyX5Z2QKzD6tEMHM3DSXpNDAboiHALw2iyQvbhMGZFw8DMC9dtEOkGYpqTKy8ffKC5CWAZhLfL/ryzDPP+D98l6JpQayePoVAFgTwhyRamz9+zxAxyGQxMggpMZMppA7rARHPvPCrLZBT+gSJKiZG6iA9aPghfUzujHgSXGdCu5BJFinAJGxkkqhjnlOC7dDK4Y8YkkmrT+JtiC7PJJpNSHYokLIwK0R4rNxt006iNY7rU9gugTsE5DCGQPgJ9MM6EpcwHG0v2mruq5mXiR5HY4obgPlJMgEhvyiTXEg2ZblGxjGIM/vAjvtw8sknh93x2wQKVSKYwa1/lbSjukKgEgREKCtBr5nWxcSMJpCXLi9KBlKWk8MkxSzbomSJUIR8koMPLSLCC5m6JpgA8WniJcMAHdX6WLmkT16MpOPA7w2NDT5UIpNJaGl/OQhACopNcOLaNd/euGPV2GeRzFnawmyN1p9n0wJQqMfzh/k+9AclyphnyRYpsPaZEDJpQ0j4nrZwwjHHHONJa7kkpxgptD7ZJ2ONaRptX9Iny0OGPo+MW0xM41KSMcaBD8QRcz7CGMU4Fq4nziQZzTTmdvxHJ+Ym3EwmmDDzx0QaQml+ttY3JsVMxisV5aSsFEHVrwYC0+RmTv/ENTThrbf97tZt4x2g4+ponxDAFMYfwTGmlcGsbb5naCEhj6UKLwsGZZHFUpFT+eaGAMSF3JHVDlCjTfMRLOcZznIfGDsgrpjgTTOapV4pZfCXxE8SYoj2EOJf6vXQRxvfSjm3ygqBpoyACGVTvru6NiEgBISAEBACQkAI1AMCShtUDyDrFEJACAgBISAEhIAQaMoIiFA25buraxMCQkAICAEhIASEQD0gIEJZDyDrFEJACAgBISAEhIAQaMoIiFA25buraxMCQkAICAEhIASEQD0gIEJZDyDrFEJACAgBISAEhIAQaMoIiFA25buraxMCQkAICAEhIASEQD0gIEJZDyDrFEJACAgBISAEhIAQaMoIiFA25buraxMCQkAICAEhIASEQD0gIEJZDyDrFEJACAgBISAEhIAQaMoIiFA25buraxMCQkAICAEhIASEQD0gIEJZDyDrFEJACAgBISAEhIAQaMoIiFA25buraxMCQkAICAEhIASEQD0gIEJZDyDrFEJACAgBISAEhIAQaMoIiFA25buraxMCQkAICAEhIASEQD0gIEJZDyDrFEJACAgBISAEhIAQaMoIiFA25btbo2v7448/3Ndff52p9W+//dZ99NFHmcpaoW+++cZ98cUX9jXx87PPPnNfffVV4nEdEALNGYHvvvvODR8+3N144431DgPP5pdfflnSeSdNmuTuuusu9+6775ZUL0vh8ePHu3feecf9888/WYpXVGbixInu2WefdT/99FNF7aiyEPivIdDiv9Zh9bfhEbjlllvcueee604++WTXrVu31A4deuih7uWXX3avvvqqm2GGGVLL2sHu3bu7p556yr3wwgtu1llntd11Pjt16uSWWWYZN2LEiDrHtEMINHcEIE88pz///LNr3769W3bZZcuCBIK3++67u912283xbJrQ/rBhw1zLli3dpptuarv9Z5cuXdxiiy3m7rjjjoL9aV8gfb179/ZtDRw4MK1onWOff/6569mzpzv88MPdyiuvXHD8vffec4cccogfSzjHzDPPXHC8Gl/o9/LLL++6du3qrr/+escYCZlv165davMffviho3+VSseOHTOPr5WeS/WFQBICIpRJyGh/IgL333+/P7b66qsnlrEDWTUCU6ZMcX/++aev9sMPP/jPyZMnpxLK33//3fFHOZNFF13UTTPNNPZVn0KgKgjw20TjNOecc1alvfpoZO6553Z77bWXu/LKK92QIUNc3759yzotz9iPP/7on7WwATA5/fTT3WqrrVaHUIblsm7vuOOO7rLLLnOPPvqow0oBUc0qt912m4MsPv30075PtGVy6aWXur///tvfu+uuu852J35yPWuttZY/PnToUHfnnXfGlmWsufjii93777/vbrjhBrfJJpt4QhlbOGHnyJEj3VVXXZVwNPvuUaNGubZt22avoJJCoAYIiFDWANT6bhLzCgPK66+/7pjxLr744n5mvM0227j111+/qt3BjPXSSy/5Nhn8jbzxoj3vvPPKOhcvrI022qhO3e22267OvugOZvebbbZZfjcvlLnmmiv/XRtCoBIEICAPPfSQ17D/+uuvbokllnBrrrmmO/744xN/Z7/99psnCWjY33jjDX96tFcQlYMPPtjNOOOMlXSpoC7nOO644wr2hV/QTiKYknk2koRnphRtYlI7afuff/55T2zTykw77bQOlxpwmnfeedOKeuuIEb+jjjrKj3tnnXWWO+200zzuZ5xxhh8TH3jgAd/Oxx9/7C655JLUNjmIJtbaxfXGTPCMU4hZWlq0+Pf1+fDDD/v9lYy1e+yxh9fo+obK+LfggguWUUtVhEB1ERChrC6e9d4aL7z+/fu7v/76y597+umndxMmTPB/vEQYaDE7V0vuu+8+P9tn4H/sscfyzZppGrJpmkYOmq8lLxP6ZsKLef755/dfaWvvvfe2Q44XABrLXXfdNT945w8GGzfddJM3X22//fZ+73TTTZeq0QyqalMIpCKARgvtG2ZLBBI422yzOfz8+HvxxRfd1Vdf7RZeeOGCdiAgmF1fe+01v5/fNlp6yBx/aN+uuOKK/G+/oHIZXyA5mHt5/uImUnPMMYfjr5gYOSpWrpLjEDojX8XaMfzSym2++eYFh5mALrXUUu7AAw/0GlV8SCHb4I/Je4MNNigon/TFxiWOM3HgD4EwTp061U8u/I7//XvwwQf91r333uueeeaZ/CTiwgsvLMAeDebWW28dVs1v4yKQxeJDBXBEc3rQQQcVJd35E2hDCNQDAiKU9QByrU6Bk7lpBbfaait3zDHHOMwwn3zyiX9p8TJkRs5sG+1IpYLm4JprrvHEEGK5yCKLFDT5/fff+9l9wc7/fdlvv/0Kdvfo0SNPInmZ8d0ErSOE8oQTTkgliLfeeqvXGIV1rQ19CoFKEDAfOCZB+CFuscUWjt8pvr1M0pi0QRjOP//8gtOcc845nkwusMACjm20mRCaxx9/3J1yyimebAwePNhr0QoqVvilc+fO/nwVNlPT6ltuuWWsJSI8KbhjRmYsQ1OYJrPMMkudwyuuuKIbPXq0m2eeebyWk4BAiDYWEMh9MWFMK8XUjn84fwiWolCefPLJ8Ksfm5MIpRVE44yJHf/0JF/PPn36OEisuRxYXX0KgYZGQISyoe9ABecfN26cr73CCisUvNgYFHmZoUl57rnnHOWqQSgZ7CF6DPRRMhleRps2bfIzcSJMqXPsscf6FzJkkQE/i2C+ShpUqW9a2SxtqYwQKAUB074fdthh+d8y9dddd10/0cGc+sQTT3iyaG4faK8eeeQRfxr8FnkOTHDL4DmAnFIGs2xjFlxnjj76aE/KsCYgaG0hxmjSwucSn+frcpaSDh06uCWXXDLxsiDnxXxQrV0+i5UNT4QrDlrNjTfe2GH+RYMMoWOcYoK9yy67hMUTtw844IC8RjKxUHCA+4zwezCNKYQP6xCT79CvcaaZZgpq1t1k4sGkAxL8yiuvuMsvv7yOBhz8IZNguf/++9dtRHuEQAMiIELZgOBXempLy5EUvbnccst5QmnlKjkfvliDBg3yJmhelOaXZG1iJmrVqpX/itnJBruxY8f6F+m+++7r60JusxLKWvt0Wd/1KQSiCHz66af+ZR5nJl1llVV8cVJi8WyZiRQTK5MtTMwhmbS2iXpG0OQ3doGM4TuIVQKig2ARIPiEaGp8/kyYJGIpoTyEuZjgBpNk0jafUwJdIN5xgptBOOahqcNlBhIMISQSnQk0Fo4NN9zQ4UsOsbQ+Q8rQHIe+rEy+ub5ipC/sD0QVEz792WmnnfyEmeO4RiD8DgiMyipMTJiAm8sEgUUDBgxwa6yxhm+C6zR8d9hhh9RJfdZzqpwQqCYCIpTVRLOe28IMxyDI4M9LKpzRE5FqWhbKVSq8PDEdMQtnNh4V0oaQOqOawmBtg3Ncu+utt17cbu0TAhUjkBTZS8MQCYTfppFJvhMMh4YpSczXzghCUrnGsB/TPgLxwmcPISUOuOC/RxohE8gbWsq7777ba/eKmYzRvqH5TRPSEfEXJ5D2cAzCFeHUU0/1BBK/VtwR8CtnUsu4CCFu3bq1Y1KLqw6aZcg/ZM0sLYyVjKUhybRzE3GOWFCOfefeo0Vkf7V8UGkT33CuBy0nfWYbf3LIPNeGv2w1/eLtOvUpBCpFQISyUgQbsD6+kZjgIJTMZskJyUuNFx6DD7NuTFDM0isVBl40hgyeq666qs/9iAM6DvDkglxooYUqPUWd+pjY0szaYfBPncraIQRqgAC/SdLQIARZpAmkhfJo29DKkyIGjdWJJ56YVq2kY7RfbaFN/AF55vkzrSGmb7R9t99+u9fMhdrbPffc05M8SFkxsmj9XXvttf34Zd/5xFSNZjLuGMSWc8cJATNgzHhEVD6BTwTT4IaAWMAS9wzzN2mG0PKRqQITPhH8SJRQkjkjTEFEGcZc5Oyzz3ZvvfWW3w79JwlARCC3UXLNhNwiyH2hmH9EkUOI0cJedNFFrlevXh4Xrgs56aSTHD66EiHQ2BAQoWxsd6SE/mAiwU8Hnx2S6TLAhYJmElNUGF0dHi91m3b446XCQAqhZHBdZ511fFPVNuUVe2GX2n+VFwKVIoDJkd8+2kmL/o1rk4C5bbfdtuAQGnXMxeYaUnCwzC9YDpAskdxZTwGBhIjZ82fPNeeAOELqrr322oKoaa6VICX8rCF1WQTNJpHKoTCOQSgJotlnn33CQ959J4lQUhCSxUSaMRHTN1pT/FYRTNmW35b7hvsB55p99tn9fstGgTaTcgT8WNaIjrmk4QgTd1wA8BVFIH4333yz3477hzY0Ktz7YoTS6thknf6axhwSv/POO1sRfQqBRoWACGWjuh2ldQbtHX5CpKtAGOAYKNFQMuNmQEOLxyy3GqSSl4wtdWgvGXzNMMMgpfgL+QoJ/9A2RGfgaB+4PtJrhGImq3CftoVALRC4Lhd4go8b0cIkCZ9vvvkST0NQCX6UEBSeD4gIplaeVyZ5+BlXQ8z8mtaXUs8Tmrupi6YVwaUGrRnaQ1IgmeaSYxA2NHkkUI8jUpSpD6GPBAAS0BeSPYhoHBllchwKk3P+IKaY+7Hw4DuOWNog+84+ospNSwwRjUamQ4zDiUex3Jq0GQruEfTBfE45B/7scRHuYT1tC4GGQECEsiFQr9I5GfjGjBnjBxcGUFKHMKtmgMNfi3Q6BMGQT4+ylQrpPMJBmvbw7zGxqPN77rnHn5f95nfE4IzY4Ou/JPyzgJ7wMPn7EEuTFB7TthCoNQJoiGylGZ4n094lnRfXEws+w5+ZQBA0Yph0SdpNe9UgBTbBqyahhKRi/TBN2ttvv+0v09xaCIBhohqdpOJXyX4IZ0MKJB7tJ9pbtMmsrU0gFf3nGMFDBCyGYuUwf+PHGDVVh2XDbXwzTUghxfjLMpeQ8pVWWslPIvi9GHZWNssn66GjwaW/EFH8NElRhPYVc3o1fj9Z+qEyQiArAiKUWZFqZOXQeFjSZRzUyUNpggaFNCW8FI444gj/8iJNiSUft3KlfmLetrQeOLEz0GFWNy0hGkSEHHD4VSL4ILFsG+vr0i8GecyBoUBEbTnHcH+4zUsZQcOTJpinyHcnEQLVQuCRnAmWyRlkhAhcAiRKEZ47852DiOILyASJCWClUgsNJTkQMbfyHCME0fBsW+Q6qXn4YwwKhXEgLSgpLFurbfoE1mgOycHLRBpCid8qJJMgGjSojJehrye+lPjGMl6aC08pfcS0TrASeSYZIyGU5N4l4hyN5plnnllKcw4/TJKykygf0mrLMxKpzqREpLIkOFW4nhAQoawnoKt9Ghz9zZE8aQC0/ZjGmYFXGl1KJDd/CJpGCCUO7nYeTOK8PPExsvQWHOeFxIyalxKR25iAjHzSFqvrENGYRYqVQ7sgQpkFSZXJggAvdpJso3lDc37kkUcmVrOlTzFns9RiVAgMgRxgvoTkVENqoaGkX0Ym8S2EABOIF9VIVqP/1W6DSHPccGxMIqURYppESPyIESN8hPfkyZO93zmaPya9SFpWCV8g+IcG0ZY8RDvJOEv0Na4RCItMMLEnGIs11Zdeemm/P+0f7hEXXHCBtzBRjjEbEmw+srSNH6tIZRqKOtZQCIhQNhTyFZ6XiEsiElk3GELGrDwqtuY2Zpgsg1m0fqnfGfRY6SFN8CmKlkErwIw7KkSps2QaPkNmOsdPE+JKcEPcNZeSRy56Pn0XAiECmHohCEzceIkX045jjmRBATR5Zu4O2+M3zEQQadeuXXio7G0LOqmmyTvsDHlkEcu9GR6r723z5Uw7LwE5iC3lCt6MGRbljT8ikehoYMePH++XrUSzagE7xQglGlDcbrCqYDVBEwmZxM2HtEqWBN76iHsDZfkksjzNhxKXiH79+nliysScMZG/kMgT1ENAFNcHqURjzneJEGgMCIhQNoa7UEYf8J/BBI3Gj7QSDEA4jZugWTHzE6YeG1DteGP6xERkpnT6hTaIwZWZOdoDBkxIJ8LLAL8irvnVV1/1Ppxcu0QIVBMBJjO8zCEarBWfZWUbzKj4WUJEMXHy/JkmHvKB+fOXX37xvm/mn1hJn9GQ4T6CNpFo5VoIwSlIsSUDa3Fu2mTVGDTETBRN22im9+g5ccOhDD6M+Egy8cRkDCFj1Z9Q8JHEBQcChzCWIGTKQMNsvuGk6sHlgQAk3Atwe0BLCEnFvYb6tiJO3G+ElXIwXVMOUklQVzjW+ZP+7x9+5kz+Iab0N2mSgDsRwU9ozEt1vwjPp20hUG0ERCirjWg9tofGBNOZrRDB7BczCyYfBlKE2Xet17rmBcqgyiBrJLYcGHjpksyYlxiR6szGBw4cWKBdRQPATB//J0xJpPIgnxwvffPlLOfcqiMEQgRYr9vMyfzORo0aFR7Ob5PMn98ewqQNXz00WKTPQUvJy9/cQ9BQQoxwBzGimW+ojA0LgjM3lDKaSK2CBg8TLGbXOBN+auUqHSSYhbEMLTGYkZ4oaaEGSBZi6YYg3KZxJMI+TiCsiJm8IZbUM2HpWqLDuW+WIg1zOkQR0zSuPARg8Zk0scWXEmsRq4sxqWCiHCdgDOZZJv+URZkgi0wcktrXUAiIUDYU8lU4L35BEDAczyFWmL/sJUjaHWbqzLSzDFCldMdekNQhghFfJCSad8/vLPIPExKaBaLV0QZg3uYlwIsZv6PQ3GNNcT04wPPCHjx4sE9OzCDN9TK754WjgdbQ0mc5CFhaLKuLZiqL8JsltQ5mULSHpvnCokBgGkmpq2XuNkKJn161hevHCoAYQfNfqvCPXIo880kELDwFzz8R8sUEDSKpjJhQEzCEcB8syXhafSbkpDxi3LFsElaenI9oIrHyRMciSCiTeIis+Zxavegnkwy0p0yS44RJC/0vVzi/tJXloqd61UJAhLJaSDZQOwyCtuQhEdQ40LO2bLEBrpLuch5m7giDKv48aGmSTFFp50L7QN44fEEhwZhxyOVWLG0HpnBeApwX/yUiKUm0zh/ag2hakLQ+6JgQiCKAmbNcwZzNRI8gDTR8ZFtg8oeJtVqCPyHPIH7LtUjTA/HF0tGpUycfWFKtftMOxCzJnFvueUw7ia8reKcJgTtMghlDmIAT6Id1JC5hOD6X/MUJ4xYTCFujPa6M7YM8MwlO8qEkUKgSQRMuQlkJgqpbDQREKKuBYiNpA5Mzf7UWyCovHF4KBNlEZ+6lnB8zNYEMtIGmBR+iUoSXNP5d+K9BAtACiEyWgqDK1goBfsuWPqva54AMYfbE34/tagraWDSqECXL1hDXPteHf2A0ECWubKn7ipHCaHuY5U3TGD0W/f7BBx/4pRltP6Z0JqbFgq6svH2SRJ2/rEIGiqgwKa7GhEA5KaPI6ntDIDBNbvCIteVMeOvfZLat27ZpiH7pnE0EAfwr0T5i7qtEeFnggyayWAmKqtuUEMA9BA1/khm10mtFe5ekUSvWNqmRCBQqtW8E0pCqCN/JWrmtYFXBTxJCjOaQSXglk+IoFvhlcl9ItVTqBDnalr4Lgf8SAiKU/6W7pb4KASEgBISAEBACQqARIlA9p55GeHHqkhAQAkJACAgBISAEhEDtERChrD3GOoMQEAJCQAgIASEgBJo0AiKUTfr26uKEgBAQAkJACAgBIVB7BEQoa4+xziAEhIAQEAJCQAgIgSaNgAhlk769ujghIASEgBAQAkJACNQeARHK2mOsMwgBISAEhIAQEAJCoEkj0ILcfmlS7HhaXR0TAkJACAgBISAEhIAQaPoISEPZ9O+xrlAICAEhIASEgBAQAjVFQISypvCqcSEgBISAEBACQkAINH0ERCib/j3WFQoBISAEhIAQEAJCoKYIiFDWFF41LgSEgBAQAkJACAiBpo+ACGXTv8e6QiEgBISAEBACQkAI1BQBEcqawqvGhYAQEAJCQAgIASHQ9BEQoWz691hXKASEgBAQAkJACAiBmiIgQllTeNW4EBACQkAICAEhIASaPgIilE3/Hv/nrvCbb75xX3zxRdF+f/bZZ+6rr74qWk4FhEBzROCVV15x7777btUv/bHHHnPvvPOO++eff6ra9qRJk9zdd99dkz6HHf3jjz/chAkT3Oeff+53//nnn+7xxx8Pi2Tapo3777/fMV5VKh988IG7/fbb3VtvvVVpU6ovBBoMgRYNdmad+D+NwKeffuq+++67kq6hZcuWbsEFFyxa58QTT3TPPPOMe/rpp92ss86aWL5Lly5umWWWcbfddltiGR0QAs0VgX333dfNMccc7pFHHikJAohWr1693KGHHupWWmmlgrrvvfeeO+KII9wss5uVzXoAABbySURBVMziHnroITfzzDMXHK/kC6TuvPPOcxtvvLG75JJLSmoKknj66ae79dZbz2211VapdRm7tt12W7fRRhu5AQMGuEGDBrkrr7zSHXvssW6//fZLrRsevOyyy9zYsWPdGWec4XbcccfwUMnbEP+zzz7b95/+FJPvv//ePfroo/4evPzyy+7WW2+tM7Y++OCD7u+//y7WVOrxRRdd1LVt2za1jA4KAUNAhNKQaAKfDB4//vijf4nU+nJ69+7txo8fX9Jpdt55Z9ezZ8/YOlOmTHFoChCuAZk8eXIqoeQlwtKglDNhAJxmmmnsqz6FQFUQYPI0++yzu+mmm64q7TXmRoYNG+Y1dkzqTj31VLfDDjvku3v55Zd7kjLnnHO6oUOH5vcnbay66qquffv2SYcL9m+//fbuiiuu8OMKWj8moFnl2Wefdffee6+755573Jdffukg01nl4IMPdi+88IK76KKL3DzzzOPJZrG6WFAgbEx4mdiWIxBB025OP/30jr8nn3zSjR49umAMb9OmjXvuuef8PcEqw/Xx+ddff/nTQu6feOKJgvvEuHjMMceU062COka6C3bqixBIQECEMgGY/9JuTCVoIV588UX3008/+YF4zTXXdGj65p9//ppeym677VZUS/Hxxx/7mXxSRxj8OnXqVOfwTjvtVGdfdMf7779fMKBjjptrrrmixfRdCJSMACbNq666yr300kvuk08+8b/zFVdc0WujOnfunNgeL/877rjDvfHGG+7DDz90iy++uFthhRW85gwNWmMXNJCLLbaYY9KIpvLNN9/0E0GuBxKFgMfAgQOLXgqTSCOUkLZrr702tc60007rJ5aHH364J3dphffee+982+AKGT3++OPdhRde6F1m9thjj9jzGYkzrSDnsHFyyJAh7tVXXy2Y+F566aV+XA37wrgDoZtxxhm9ljM8lrS91FJLuXBM69evn3vttdfqFI9OurkHkPv77rvPE9hFFlnEbbjhhq5Vq1ZunXXWcWussYYno3Uayu3gt7fLLrvEHcq0j9+BRAhkRUCEMitSjbRc37593Y033pjvHbNVBkx8ezAZM7jagJ4vVMWNQw45pKgmgQEa01CS8BJh8DfhpcUMnJcRs/Ykwcwz00wzue22284XQXuUZiJPakf7hUAUAcgTv21z65h77rn9Npow/jCb7r///tFqXmvHM2faoxYtWnhSCbFEewZRQiPW2AWTMAQIDJikgsMJJ5zg/SYPPPBAt/7662e6hPnmmy9fjoklZtos8vrrrxctttlmmxWUgVwxFmK25pM+45OZJJBiJuOhcJ/4C0nd8OHD85rEsCzbjLU33XRTdHfsdzALCSXEHcsMv7XlllvO8VsxwZcSDe0CCyzgVlttNU8oOUZ/IYlZBRcjiHdWufrqq92SSy7pNtlkk6xVVE4I5BH4/19wfpc2/isIoD0xMtmtWze31157+Zk2GgVmtQxKDIwMqmnErKGvl4H05JNPzneD2T+E8rjjjksliAyuSyyxREHdfCPaEAJlIkCwyWGHHeYJCdof/Pp4seO3du6557oxY8a4iy++2L900RKZEKjSv39//xUz6JFHHulwwYC4DB482I0cOdJr9ZjgYQpu7NKuXTsHmcIMDB64lmDq7tixo2MSWEwWXnjhgskmmFA3TfCHRiMIdsU0a0yeowIZghTRDhaao446KlrE3w9M4hDQM888s87x6A7M/LjXmKDFxCK05ZZbul133dV2F/0MyTWF1113XX+tuBicf/75bvPNN8+3gfkfDTl+qqWY/vMNRDZwJ+J3jAk7SUvOewPsubcoJExrG2lKX4VAIgIilInQNP4DPPQIA2/37t3zHV5++eX9C4z9aFJuuOGGkpzN8w1l2Lj++uv9SyatKH0oRzC5pTn9V+pwXk6fVKfpI8CLFc0T2m7MqGjBEchUnz59vL8dgSv4rYWEkpc/wvOH5cAEEyXEhShmzL5o4BszocRHDw0h5AMNFyZ/rB0QRJ7l0Jpg1xj3CWljUmjCpBYM08Sedz6LlQ3bwXyNSRgiima1R48e/vBCCy0UFvPbuNgg3Ne44/5g8A93BRNINfcdksc5CHqqRAggggCPGDEiTyjRWBL8hJawGmSS/jEJgmQzQSD4aJ999qnTbX7bjKmQWZHJOvBoRwYERCgzgNQYi2DOsZQgcRGG+BEyIEEmMbWVEr1YyvVec801pRQvqexdd91VUnkVFgLVQODtt9/25AnSZ2TS2kV7A8GAUKJJD8VSWJF5IE6WXXZZTyitXFyZau/79ddfi5pkQ9cSNFmMFRMnTvSBLZAPcIAYYrIlQAdiie80ArlCi4svoclHH33kTbNR7Oz4119/7QmrfQ8/IfMIaXSSzOOQQLAMBXM8Gj2CZYiWtsC8hx9+2Gsqw7I2ESWoEF/zUNB6Jp2Xcmj50FZiUQnJJJpK6pYyHuLv/dtvv3ntN4Sd8Q4iDflDMG2PGzeuYNKCnzzWmzghGpvAsTjZZptt3M8//+z7jzaUdwdWLLNccW6ChPh+0EEHxTWhfUKgKAIilEUhapwFmClbHrgknxp8n5AwCrpaV4MpqRTfHM5bqoM3fpezzTZbYpc7dOiQeEwHhEC5CECawsjmaDumcQ+1k5QhsAw3jKeeesqbx0MNG88i5MvK+Y16+Md5IUFpsvXWW+eJhbmfQJgIoMGfkPpoGzH5M+ZgVkbDhYXErhW/UTSxCOl/wCEkmeH58amOM0WHZdDY8RcncdkiSDOEbyrBUPivYt2A/EMeIdVoWlu3bu2bg1hBniC8K6+8cv4UkDXKJgkuC5DQDTbYwEWDsnB3iJq0k9qx/bgRhGJaVdtnAUwHHHCA7Srw7czv/N8G5SH3SQLpBQOsWXfeeae/t+AGESbCHcGqlUVrm3QO7W/eCIhQ/kfvP07czCaZLTNAr7322nWuBE0B8ssvv/gE4PPOO2+dMuXsYHaLJiON7MW1++2333oH/yQNTrQOLwMLboge43vasbjy2icEKkXggQcecGgwIV5E2oaCbyTPIdomXt5MuJhEQUAJ3OB5hIRCSOpLeEajRCV6bjMz23587DCNkocSX0FyNKKhnDp1qi9iWRTIF0mQCT6AEBFyOhJAYqQsiVDaecALP8ZQMK9D2uKO4YtKv+IEXLHGgDk+44x1oRsQZnr8zBFcDzA1cw76bIIWz5Kd2z77xAx9zjnneA1iGLBjx8v5xB83FCxJTDog7+EYybZpPiHThj9BidwT0yhGJzhh27bNNd9yyy3eNYAIc36n+Mri5oBi4uijj7ai+hQCJSMgQlkyZI2jwgwzzOBn188//7wPECBAJzR38FKDaJoQYVktQslAjUmsHGFwZKafRbbYYossxVRGCNQLAvzmLYhjzz339Jq68MSYWXkOLfNClDCgwURzZmbGsG6ttiF1aCBLFYKQ0Hhdd9113gT+ww8/5E2taPb4jmASJ/AIMgd5Zb+l5UGbyXc0YHH5OzGlh9o32qMdCGXHXPAOQYahMNYlEUrK4feHz+spp5xSJ6AHraT1yz7xpbRt6mN+ThJM6kzeIXP4PEaFya+Z26PH+A6eRvzsePS+YO6HUK611lqJgTNohs0ihc8o14DfaCnC/SKYE5xwCcD3l98uv80kN4VS2lfZ5ouACOV/+N5j4mF5NWbPvOAww+DfxD6S4/IyMQd0BvVqCbNktI1xwguIwTXJZ9PMYnF1bR8aEgbgUDDR8CKOmpq4XokQqDUCEA9MlJh9V1llldiXOBpzTMUWLMfvFQ0lmjXICi4caPbxYatPUlkuNpjs0VihmQtXo4LUxRG7qJsAeRb5K2aKLbd/cfUwx6O5iwpEk79QIG9Rt5mkcZLJOK5DaPIw5ydJ0jGSk0cJJQTZ/OBpj3EbgeChRTWJEk/bX8knAWdEqUMoTZK0s3Zcn0KgGAIilMUQasTHMa/hA8Ogj0M6S4GZMJNmKTK0icw+W+VMQtWSqObA2kULgIYGP51iPlJWJ+4Tk09U0FogzKIlQqA+EcAPEfMvhILfNgm9sRBEBc0kWiNMyCzHh4YdzRwTLEgCplI+0XJC0v4LgpYRTSJBgJj6ITosx4ifHceIRo4GyFg56qE1JIdnfQp5QvH9DIkYCekx7SJoTTGLW4Jw6xv7ktxoGGfNJ93Kh5+Y0EmvRNaLOImbQEA+Wd0nKlFSSnohApmQauXZpZ8XXHCBbxNciOo/6aST/PcwfZHfoX9CICMCIpQZgWqsxfDHIg2JJVxmQMSsTM43ogEZ9Bk4416ApV4T/jpoQ5METQzCuXDWTxMIrjl/039809LEBvMwX2Vcefzayl0KLa497WveCJhJEXMkgR2ssxwG2xg6mEPNleO0007z2h87RnDIpptu6id2LIcHccHcWC1yYOep9ifXhBYLwkHQDYQZQslqNJBFsEDryvNGAnQTNIHkbkSjG+fbbeVq9UmOUPwDyVFrgrtB6EPJPYAIh/6luAklaekgxUaMmbyjsQyjvJm0M3nAnIwwDqNxxKc0STD3k0DeBCLJhIPJOKmnTPjd4bKE9hTSWokwjnIvORd95vdIgn58SVEGiFRWgq7qilA2gd8AAx2zyujMkkETwQxUDcFBn7V9iwkaiqh5J1qHgQszPULEJQ7pWaRYOSItRSizIKkyxRCAFECeWEqR3xW+czYJitYlhZD54CWRKNtPuzwjq6++erSZRvWdZ42VXKzflibJxhPGm1GjRnnLCISHNDQEK/3444/+OkoN2qvGxTOWQCbxM6TfTFYR/F8tyt5II1o/20cZ8wtlO0lIZ4QfI8SOKHSuN07QQoMNFiIjstFyEFom/CQTJ/ejue9AhCF3KAYYbyH29Jnv5QquFrgpQPZx30BjSnolJgwIJJbgTXwrRSrLRVn14p8G4fKfQIBccMw4MXlHl8rCRIUGAQkT81ZyYfgBJZmy8S0iejAUtKdoMuIk3I8mI87nkqhYlqrDlM6gimDKZ+BHsxBdeo3jcioHBUk1EMBsjY8ZEzbIZKjxirbPMTTzaDQhNXFr07MfQZNF8u3GLma+tUTmkCmeP/4QiCUEBHcAcipCerCGGKGstgaWMa2YENSDEHUeSlwaIoIWQ80q5ZN8KDmGxQe/dfxomQwnkUnKQhDR3mJWZrxKCpxh0k/ey9A3HNwgdxBSxnaIL5MQC8ah/VIE3LiHlvWDsRdLT6gFpT2IJL9ftJds87snKlwiBLIiIEKZFalGWI6BgQGUaFIGcggfQtoOZp+YqBkg7YVQ6SUwo476S9Emg58RTQZaUhqdddZZ7sknn/TmMgZtzH5Jgs9ZmLqE2TTXBSFm0OZlzsCK8AKDgHJ9aCIYGKv94krqp/Y3HwRYQpGchgi/P8thmIQAzxkpcCAH/Db5TYZL3LFCDqZwhKAeI2VJ7TX0fnJJopEkryHPM2MJk0aex3D1G/oJ8eD5Np88nkuEcQncMO+XK5AgtMQEGJqG1Ma5aJukZ0IjSdntttuu4DBR46Q5QiBo+ERCiEN/bcy+TF7jBDM3pBDSjJk6SkSjdbjH/G6w1LDsJppIGyPDspBOtIX0L1y/nHOwcg1aYsveYeb0sH6WbX5raDchpUTlRy1ZYRv4+aJpB3fzOQ2Pa1sIpCEgQpmGTiM/himFAYlBDm0lAwAvMpLsshoHgzwDRC1fXqzkgG8Vs3e0LgxYaGqIbsU/BxMLxJKXAoNsmqBtRZNAzj5eDmh98Idaeuml89XYx3EGdyLZ8dXs2rWrf4FAqiVCoFIEICVDhw7NNxO3EhUHMX9bRDffIVr4GGJehXBgFuU3idkYMoZg1jSTot/RSP9ZUm0LwOP5tokbz3OcmAbM/J0hloxNlQgYk46HSTLjCoE2cdpfznHzzTd70gQZC/0bOYZ7AeMEwj2CUOLHbfvYzzXHEUr8uxlHuS4CZHr16kXxosJ4DKnE+oIJm3sf/pbwl2ScY4lLw9YaxW2HbACYqSHISJo/ptVL+iSYEfzigoOidZgQManPUjZaV9+bNwIilP/h+08EJUmFMf/iC2QmNS6J2Sz+OwQDVFsY4NHEsEQYqS8QTCMQSwYthAEc4ocPEP3ixQQZZLDnpYCjOYIpG20I0bGYF9F2MrjSdzSrcYMaBJnBHw3SkCFDvCaT5MtoU2ifGbhM3x5e/SsDAUyaoaBdipPofrRxuH2QKoeJDiTMonN5VlnmD416tSZ4TL6S0nfRX6LLeZ4gNcWE59ZWviIAiSA/yDBkB8EyQdBKMSG6mmTZ+E+a/2K0Dks4QqaiJCpaju88/4/kfLeLCUQQPJCoubtYXTseRyYxO5MtAyGJO2Nt1NSNRg+s4wSzMr8HJsBE9oMpmmzKQ2oRI+1hfX4jEFECHTGLo02NpjgKyydtUz+aLimpbNJ+CPx/wUUjqf/aX38IiFDWH9Y1ORPmJgYMZs9EYOMvg3aQF0BcMuFKOoE2FCLHeexlil8PfkWkzYiatTmG6ZolzXip4WeFWYm0K5ikcFyHnKK9xHeHly4mKF4ILVu2TO0qgzp579AwQGzRABA8wR8mMcx0EiFQDgL4v/FXjkCkcPdAIHu80NGyVRqdG9cXIql5ftIEkmTEJa0c/TZCadrJ3Xff3UcCp9XDJEtADs8jVhG+c85QExetD0ksdZnCaBvR71gr8N0kPVDUNzBaNvxOJDY5bjHpo02NmtNxW6CvREKHrkOYj/GxRXsIiYYgJllIyDyBtQatt02kGacwozMRJ+cuZNgChMyP84gjjvATEPqbFNgTXkvcNr8/fieVCGRShLISBJtPXRHKJnKvme3X2oGaFyPaCz7xR+IPTWSUSEYhxVTDoEYSX15WaCPNJ41BGGLJSwZtaqkkmHNDZolWRGuKn5XIZPQO6HtDIMBkj79aCc+NRZZXeo5Q68Yzjdk+C6mGFOEjaMJzzGQRC0MlQkqbUgQTN2MJ2tE4iWuPsYbxw/I+MqGNEjf2kSvSzM7WNnXDNENMgEPCaeXsk4kyk1/TTrMaDtHdtI8m28zoXEO4vji5TJmQhzk1rc20T+4DVptqiMbTaqDYPNqYJjcgxdpzPv5ggkdg0aVaNw8kdJWZEGDGmzQTz9RArhDaAIJwGPSyCloAtJga3LIipnJCoPYIoBWEEEGwmNRCoEt5rqM9ZGzATYBJa6luK1hNosQRbSmaRzSDFviHNhFLjgUDck6E4Jdo/Wj/wu/4xuLbSR2sMcUm1mHdcJtxDRcDzo+GNdoO/Yv6hFKfyT3411qREPZV20IgDQERyjR0dEwICAEhIASEgBAQAkKgKALTFi2hAkJACAgBISAEhIAQEAJCIAUBEcoUcHRICAgBISAEhIAQEAJCoDgCLSzNS1LRYseT6mm/EBACQkAICAEhIASEQPNAQBrK5nGfdZVCQAgIASEgBISAEKgZAiKUNYNWDQsBISAEhIAQEAJCoHkgIELZPO6zrlIICAEhIASEgBAQAjVDQISyZtCqYSEgBISAEBACQkAINA8ERCibx33WVQoBISAEhIAQEAJCoGYIiFDWDFo1LASEgBAQAkJACAiB5oGACGXzuM+6SiEgBISAEBACQkAI1AwBEcqaQauGhYAQEAJCQAgIASHQPBAQoWwe91lXKQSEgBAQAkJACAiBmiEgQlkzaNWwEBACQkAICAEhIASaBwIilM3jPusqhYAQEAJCQAgIASFQMwREKGsGrRoWAkJACAgBISAEhEDzQECEsnncZ12lEBACQkAICAEhIARqhoAIZc2gVcNCQAgIASEgBISAEGgeCIhQNo/7rKsUAkJACAgBISAEhEDNEBChrBm0algICAEhIASEgBAQAs0DARHK5nGfdZVCQAgIASEgBISAEKgZAv8H0nvL8+NWTwkAAAAASUVORK5CYII=;" vertex="1" parent="1">
          <mxGeometry x="750.67" y="330" width="448.54" height="280" as="geometry" />
        </mxCell>
        <mxCell id="lu2x-ake6haxr_xihZO2-54" style="edgeStyle=orthogonalEdgeStyle;rounded=0;orthogonalLoop=1;jettySize=auto;html=1;fontSize=16;exitX=0.5;exitY=1;exitDx=0;exitDy=0;entryX=0;entryY=0.25;entryDx=0;entryDy=0;" edge="1" parent="1" source="lu2x-ake6haxr_xihZO2-10" target="lu2x-ake6haxr_xihZO2-52">
          <mxGeometry relative="1" as="geometry">
            <mxPoint x="820" y="440" as="targetPoint" />
            <Array as="points">
              <mxPoint x="68" y="400" />
            </Array>
          </mxGeometry>
        </mxCell>
        <mxCell id="lu2x-ake6haxr_xihZO2-55" style="edgeStyle=orthogonalEdgeStyle;rounded=0;orthogonalLoop=1;jettySize=auto;html=1;fontSize=16;entryX=-0.005;entryY=0.343;entryDx=0;entryDy=0;entryPerimeter=0;" edge="1" parent="1" source="lu2x-ake6haxr_xihZO2-11" target="lu2x-ake6haxr_xihZO2-52">
          <mxGeometry relative="1" as="geometry">
            <mxPoint x="940" y="440" as="targetPoint" />
            <Array as="points">
              <mxPoint x="280" y="426" />
            </Array>
          </mxGeometry>
        </mxCell>
        <mxCell id="lu2x-ake6haxr_xihZO2-56" style="edgeStyle=orthogonalEdgeStyle;rounded=0;orthogonalLoop=1;jettySize=auto;html=1;fontSize=16;entryX=-0.001;entryY=0.44;entryDx=0;entryDy=0;entryPerimeter=0;" edge="1" parent="1" source="lu2x-ake6haxr_xihZO2-12" target="lu2x-ake6haxr_xihZO2-52">
          <mxGeometry relative="1" as="geometry">
            <mxPoint x="830" y="510" as="targetPoint" />
            <Array as="points">
              <mxPoint x="360" y="453" />
            </Array>
          </mxGeometry>
        </mxCell>
        <mxCell id="lu2x-ake6haxr_xihZO2-57" style="edgeStyle=orthogonalEdgeStyle;rounded=0;orthogonalLoop=1;jettySize=auto;html=1;entryX=-0.008;entryY=0.553;entryDx=0;entryDy=0;entryPerimeter=0;fontSize=16;" edge="1" parent="1" source="lu2x-ake6haxr_xihZO2-13" target="lu2x-ake6haxr_xihZO2-52">
          <mxGeometry relative="1" as="geometry">
            <Array as="points">
              <mxPoint x="520" y="485" />
            </Array>
          </mxGeometry>
        </mxCell>
        <mxCell id="lu2x-ake6haxr_xihZO2-58" style="edgeStyle=orthogonalEdgeStyle;rounded=0;orthogonalLoop=1;jettySize=auto;html=1;fontSize=16;entryX=-0.01;entryY=0.629;entryDx=0;entryDy=0;entryPerimeter=0;" edge="1" parent="1" source="lu2x-ake6haxr_xihZO2-14" target="lu2x-ake6haxr_xihZO2-52">
          <mxGeometry relative="1" as="geometry">
            <mxPoint x="830" y="590" as="targetPoint" />
            <Array as="points">
              <mxPoint x="600" y="506" />
            </Array>
          </mxGeometry>
        </mxCell>
        <mxCell id="lu2x-ake6haxr_xihZO2-62" style="edgeStyle=orthogonalEdgeStyle;rounded=0;orthogonalLoop=1;jettySize=auto;html=1;entryX=-0.001;entryY=0.181;entryDx=0;entryDy=0;entryPerimeter=0;fontSize=16;" edge="1" parent="1" source="lu2x-ake6haxr_xihZO2-9" target="lu2x-ake6haxr_xihZO2-52">
          <mxGeometry relative="1" as="geometry">
            <Array as="points">
              <mxPoint x="-17" y="381" />
            </Array>
          </mxGeometry>
        </mxCell>
        <mxCell id="lu2x-ake6haxr_xihZO2-1" value="1" style="rounded=0;whiteSpace=wrap;html=1;fillColor=#ffcd28;gradientColor=#ffa500;strokeColor=#d79b00;fontSize=16;" vertex="1" parent="1">
          <mxGeometry x="-60" y="213.1914893617021" width="85.33333333333333" height="43.40425531914893" as="geometry" />
        </mxCell>
        <mxCell id="lu2x-ake6haxr_xihZO2-2" value="2" style="rounded=0;whiteSpace=wrap;html=1;fillColor=#ffcd28;gradientColor=#ffa500;strokeColor=#d79b00;fontSize=16;" vertex="1" parent="1">
          <mxGeometry x="25.33333333333333" y="213.1914893617021" width="85.33333333333333" height="43.40425531914893" as="geometry" />
        </mxCell>
        <mxCell id="lu2x-ake6haxr_xihZO2-3" value="3" style="rounded=0;whiteSpace=wrap;html=1;fillColor=#ffcd28;gradientColor=#ffa500;strokeColor=#d79b00;fontSize=16;" vertex="1" parent="1">
          <mxGeometry x="196" y="213.1914893617021" width="85.33333333333333" height="43.40425531914893" as="geometry" />
        </mxCell>
        <mxCell id="lu2x-ake6haxr_xihZO2-4" value="4" style="rounded=0;whiteSpace=wrap;html=1;fillColor=#ffcd28;gradientColor=#ffa500;strokeColor=#d79b00;fontSize=16;" vertex="1" parent="1">
          <mxGeometry x="281.3333333333333" y="213.1914893617021" width="85.33333333333333" height="43.40425531914893" as="geometry" />
        </mxCell>
        <mxCell id="lu2x-ake6haxr_xihZO2-5" value="5" style="rounded=0;whiteSpace=wrap;html=1;fillColor=#ffcd28;gradientColor=#ffa500;strokeColor=#d79b00;fontSize=16;" vertex="1" parent="1">
          <mxGeometry x="452" y="213.1914893617021" width="85.33333333333333" height="43.40425531914893" as="geometry" />
        </mxCell>
        <mxCell id="lu2x-ake6haxr_xihZO2-27" style="edgeStyle=none;rounded=0;orthogonalLoop=1;jettySize=auto;html=1;exitX=1;exitY=1;exitDx=0;exitDy=0;fontSize=16;" edge="1" parent="1" source="lu2x-ake6haxr_xihZO2-6">
          <mxGeometry relative="1" as="geometry">
            <mxPoint x="686.6666666666666" y="256.595744680851" as="targetPoint" />
          </mxGeometry>
        </mxCell>
        <mxCell id="lu2x-ake6haxr_xihZO2-6" value="6" style="rounded=0;whiteSpace=wrap;html=1;fillColor=#ffcd28;gradientColor=#ffa500;strokeColor=#d79b00;fontSize=16;" vertex="1" parent="1">
          <mxGeometry x="537.3333333333334" y="213.1914893617021" width="85.33333333333333" height="43.40425531914893" as="geometry" />
        </mxCell>
        <mxCell id="lu2x-ake6haxr_xihZO2-7" value="......." style="rounded=0;whiteSpace=wrap;html=1;fontSize=16;" vertex="1" parent="1">
          <mxGeometry x="686.6666666666666" y="234.89361702127655" width="128" height="43.40425531914893" as="geometry" />
        </mxCell>
        <mxCell id="lu2x-ake6haxr_xihZO2-9" value="0x20" style="rounded=0;whiteSpace=wrap;html=1;fontSize=16;fillColor=#d5e8d4;gradientColor=#97d077;strokeColor=#82b366;" vertex="1" parent="1">
          <mxGeometry x="-60" y="256.595744680851" width="85.33333333333333" height="43.40425531914893" as="geometry" />
        </mxCell>
        <mxCell id="lu2x-ake6haxr_xihZO2-10" value="0x30" style="rounded=0;whiteSpace=wrap;html=1;fontSize=16;fillColor=#d5e8d4;gradientColor=#97d077;strokeColor=#82b366;" vertex="1" parent="1">
          <mxGeometry x="25.33333333333333" y="256.595744680851" width="85.33333333333333" height="43.40425531914893" as="geometry" />
        </mxCell>
        <mxCell id="lu2x-ake6haxr_xihZO2-11" value="0x5A" style="rounded=0;whiteSpace=wrap;html=1;fontSize=16;fillColor=#d5e8d4;gradientColor=#97d077;strokeColor=#82b366;" vertex="1" parent="1">
          <mxGeometry x="196" y="256.595744680851" width="85.33333333333333" height="43.40425531914893" as="geometry" />
        </mxCell>
        <mxCell id="lu2x-ake6haxr_xihZO2-24" style="edgeStyle=none;rounded=0;orthogonalLoop=1;jettySize=auto;html=1;entryX=0;entryY=0;entryDx=0;entryDy=0;exitX=1;exitY=0;exitDx=0;exitDy=0;fontSize=16;" edge="1" parent="1" source="lu2x-ake6haxr_xihZO2-10" target="lu2x-ake6haxr_xihZO2-11">
          <mxGeometry relative="1" as="geometry" />
        </mxCell>
        <mxCell id="lu2x-ake6haxr_xihZO2-12" value="0x7B" style="rounded=0;whiteSpace=wrap;html=1;fontSize=16;fillColor=#d5e8d4;gradientColor=#97d077;strokeColor=#82b366;" vertex="1" parent="1">
          <mxGeometry x="281.3333333333333" y="256.595744680851" width="85.33333333333333" height="43.40425531914893" as="geometry" />
        </mxCell>
        <mxCell id="lu2x-ake6haxr_xihZO2-13" value="0x88" style="rounded=0;whiteSpace=wrap;html=1;fontSize=16;fillColor=#d5e8d4;gradientColor=#97d077;strokeColor=#82b366;" vertex="1" parent="1">
          <mxGeometry x="452" y="256.595744680851" width="85.33333333333333" height="43.40425531914893" as="geometry" />
        </mxCell>
        <mxCell id="lu2x-ake6haxr_xihZO2-25" style="edgeStyle=none;rounded=0;orthogonalLoop=1;jettySize=auto;html=1;entryX=0;entryY=0;entryDx=0;entryDy=0;exitX=1;exitY=0;exitDx=0;exitDy=0;fontSize=16;" edge="1" parent="1" source="lu2x-ake6haxr_xihZO2-12" target="lu2x-ake6haxr_xihZO2-13">
          <mxGeometry relative="1" as="geometry" />
        </mxCell>
        <mxCell id="lu2x-ake6haxr_xihZO2-14" value="0x9D" style="rounded=0;whiteSpace=wrap;html=1;fontSize=16;fillColor=#d5e8d4;gradientColor=#97d077;strokeColor=#82b366;" vertex="1" parent="1">
          <mxGeometry x="537.3333333333334" y="256.595744680851" width="85.33333333333333" height="43.40425531914893" as="geometry" />
        </mxCell>
        <mxCell id="lu2x-ake6haxr_xihZO2-21" style="rounded=0;orthogonalLoop=1;jettySize=auto;html=1;exitX=0.5;exitY=1;exitDx=0;exitDy=0;entryX=1;entryY=0;entryDx=0;entryDy=0;fontSize=16;" edge="1" parent="1" source="lu2x-ake6haxr_xihZO2-16" target="lu2x-ake6haxr_xihZO2-1">
          <mxGeometry relative="1" as="geometry" />
        </mxCell>
        <mxCell id="lu2x-ake6haxr_xihZO2-15" value="1" style="rounded=0;whiteSpace=wrap;html=1;fillColor=#ffcd28;gradientColor=#ffa500;strokeColor=#d79b00;fontSize=16;" vertex="1" parent="1">
          <mxGeometry x="25.33333333333333" y="82.97872340425528" width="85.33333333333333" height="43.40425531914893" as="geometry" />
        </mxCell>
        <mxCell id="lu2x-ake6haxr_xihZO2-16" value="" style="rounded=0;whiteSpace=wrap;html=1;fontSize=16;" vertex="1" parent="1">
          <mxGeometry x="110.66666666666666" y="82.97872340425528" width="85.33333333333333" height="43.40425531914893" as="geometry" />
        </mxCell>
        <mxCell id="lu2x-ake6haxr_xihZO2-17" value="3" style="rounded=0;whiteSpace=wrap;html=1;fillColor=#ffcd28;gradientColor=#ffa500;strokeColor=#d79b00;fontSize=16;" vertex="1" parent="1">
          <mxGeometry x="196" y="82.97872340425528" width="85.33333333333333" height="43.40425531914893" as="geometry" />
        </mxCell>
        <mxCell id="lu2x-ake6haxr_xihZO2-22" style="edgeStyle=none;rounded=0;orthogonalLoop=1;jettySize=auto;html=1;entryX=0;entryY=0;entryDx=0;entryDy=0;fontSize=16;" edge="1" parent="1" source="lu2x-ake6haxr_xihZO2-18" target="lu2x-ake6haxr_xihZO2-4">
          <mxGeometry relative="1" as="geometry" />
        </mxCell>
        <mxCell id="lu2x-ake6haxr_xihZO2-18" value="" style="rounded=0;whiteSpace=wrap;html=1;fontSize=16;" vertex="1" parent="1">
          <mxGeometry x="281.3333333333333" y="82.97872340425528" width="85.33333333333333" height="43.40425531914893" as="geometry" />
        </mxCell>
        <mxCell id="lu2x-ake6haxr_xihZO2-19" value="5" style="rounded=0;whiteSpace=wrap;html=1;fillColor=#ffcd28;gradientColor=#ffa500;strokeColor=#d79b00;fontSize=16;" vertex="1" parent="1">
          <mxGeometry x="366.6666666666667" y="82.97872340425528" width="85.33333333333333" height="43.40425531914893" as="geometry" />
        </mxCell>
        <mxCell id="lu2x-ake6haxr_xihZO2-23" style="edgeStyle=none;rounded=0;orthogonalLoop=1;jettySize=auto;html=1;entryX=1;entryY=0;entryDx=0;entryDy=0;fontSize=16;" edge="1" parent="1" source="lu2x-ake6haxr_xihZO2-20" target="lu2x-ake6haxr_xihZO2-5">
          <mxGeometry relative="1" as="geometry" />
        </mxCell>
        <mxCell id="lu2x-ake6haxr_xihZO2-20" value="" style="rounded=0;whiteSpace=wrap;html=1;fontSize=16;" vertex="1" parent="1">
          <mxGeometry x="452" y="82.97872340425528" width="85.33333333333333" height="43.40425531914893" as="geometry" />
        </mxCell>
        <mxCell id="lu2x-ake6haxr_xihZO2-28" value="......." style="rounded=0;whiteSpace=wrap;html=1;fontSize=16;" vertex="1" parent="1">
          <mxGeometry x="590.6666666666666" y="82.97872340425528" width="128" height="43.40425531914893" as="geometry" />
        </mxCell>
        <mxCell id="lu2x-ake6haxr_xihZO2-29" value="1" style="rounded=0;whiteSpace=wrap;html=1;fillColor=#ffcd28;strokeColor=#d79b00;gradientColor=#ffa500;fontSize=16;" vertex="1" parent="1">
          <mxGeometry x="238.66666666666669" y="-123.19148936170214" width="85.33333333333333" height="43.40425531914893" as="geometry" />
        </mxCell>
        <mxCell id="lu2x-ake6haxr_xihZO2-35" style="edgeStyle=none;rounded=0;orthogonalLoop=1;jettySize=auto;html=1;entryX=0.5;entryY=0;entryDx=0;entryDy=0;fontSize=16;" edge="1" parent="1" source="lu2x-ake6haxr_xihZO2-30" target="lu2x-ake6haxr_xihZO2-16">
          <mxGeometry relative="1" as="geometry" />
        </mxCell>
        <mxCell id="lu2x-ake6haxr_xihZO2-30" value="" style="rounded=0;whiteSpace=wrap;html=1;fontSize=16;" vertex="1" parent="1">
          <mxGeometry x="324" y="-123.19148936170214" width="85.33333333333333" height="43.40425531914893" as="geometry" />
        </mxCell>
        <mxCell id="lu2x-ake6haxr_xihZO2-31" value="28" style="rounded=0;whiteSpace=wrap;html=1;fillColor=#ffcd28;strokeColor=#d79b00;gradientColor=#ffa500;fontSize=16;" vertex="1" parent="1">
          <mxGeometry x="409.3333333333333" y="-123.19148936170214" width="85.33333333333333" height="43.40425531914893" as="geometry" />
        </mxCell>
        <mxCell id="lu2x-ake6haxr_xihZO2-36" style="edgeStyle=none;rounded=0;orthogonalLoop=1;jettySize=auto;html=1;entryX=0.5;entryY=0;entryDx=0;entryDy=0;fontSize=16;" edge="1" parent="1" source="lu2x-ake6haxr_xihZO2-32" target="lu2x-ake6haxr_xihZO2-28">
          <mxGeometry relative="1" as="geometry" />
        </mxCell>
        <mxCell id="lu2x-ake6haxr_xihZO2-32" value="" style="rounded=0;whiteSpace=wrap;html=1;fontSize=16;" vertex="1" parent="1">
          <mxGeometry x="494.66666666666663" y="-123.19148936170214" width="85.33333333333333" height="43.40425531914893" as="geometry" />
        </mxCell>
        <mxCell id="lu2x-ake6haxr_xihZO2-33" value="86" style="rounded=0;whiteSpace=wrap;html=1;fillColor=#ffcd28;strokeColor=#d79b00;gradientColor=#ffa500;fontSize=16;" vertex="1" parent="1">
          <mxGeometry x="580" y="-123.19148936170214" width="85.33333333333333" height="43.40425531914893" as="geometry" />
        </mxCell>
        <mxCell id="lu2x-ake6haxr_xihZO2-34" value="" style="rounded=0;whiteSpace=wrap;html=1;fontSize=16;" vertex="1" parent="1">
          <mxGeometry x="665.3333333333334" y="-123.19148936170214" width="85.33333333333333" height="43.40425531914893" as="geometry" />
        </mxCell>
        <mxCell id="lu2x-ake6haxr_xihZO2-37" value="......." style="rounded=0;whiteSpace=wrap;html=1;fontSize=16;" vertex="1" parent="1">
          <mxGeometry x="772" y="82.97872340425528" width="128" height="43.40425531914893" as="geometry" />
        </mxCell>
        <mxCell id="lu2x-ake6haxr_xihZO2-38" style="edgeStyle=none;rounded=0;orthogonalLoop=1;jettySize=auto;html=1;entryX=0.5;entryY=0;entryDx=0;entryDy=0;fontSize=16;" edge="1" parent="1" source="lu2x-ake6haxr_xihZO2-34" target="lu2x-ake6haxr_xihZO2-37">
          <mxGeometry relative="1" as="geometry" />
        </mxCell>
        <mxCell id="lu2x-ake6haxr_xihZO2-59" value="主键索引" style="text;html=1;align=center;verticalAlign=middle;resizable=0;points=[];autosize=1;strokeColor=#36393d;fillColor=#ffff88;fontSize=20;fontStyle=1" vertex="1" parent="1">
          <mxGeometry x="442.00333333333333" y="-175" width="100" height="30" as="geometry" />
        </mxCell>
      </root>
    </mxGraphModel>
  </diagram>
</mxfile>
